<?xml version="1.0" encoding="iso-8859-1"?><svg xmlns="http://www.w3.org/2000/svg" xmlns:xlink="http://www.w3.org/1999/xlink" xml:space="preserve" width="663" height="530" id="1320" ><g id="1355" ><rect  x="492"  y="343"  width="64" height="52" fill="none" stroke="rgb(0, 0, 0)"  stroke-width="1"  stroke-dasharray="0,0"  /><text x="524" y="360" text-anchor="middle" font-family="Arial, sans-serif" font-size="11" fill="rgb(0, 0, 0)" >Remember</text><text x="524" y="374" text-anchor="middle" font-family="Arial, sans-serif" font-size="11" fill="rgb(0, 0, 0)" > AbV</text><text x="542" y="392" text-anchor="middle" font-family="Arial, sans-serif" font-size="11" fill="rgb(0, 0, 0)" >A14</text></g><g id="1348" ><rect  x="364"  y="255"  width="64" height="52" fill="none" stroke="rgb(0, 0, 0)"  stroke-width="1"  stroke-dasharray="0,0"  /><text x="395" y="272" text-anchor="middle" font-family="Arial, sans-serif" font-size="11" fill="rgb(0, 0, 0)" >Decode</text><text x="395" y="286" text-anchor="middle" font-family="Arial, sans-serif" font-size="11" fill="rgb(0, 0, 0)" > Token</text><text x="414" y="304" text-anchor="middle" font-family="Arial, sans-serif" font-size="11" fill="rgb(0, 0, 0)" >A13</text></g><g id="1338" ><rect  x="252"  y="179"  width="64" height="60" fill="none" stroke="rgb(0, 0, 0)"  stroke-width="1"  stroke-dasharray="0,0"  /><text x="284" y="207" text-anchor="middle" font-family="Arial, sans-serif" font-size="11" fill="rgb(0, 0, 0)" >Decode AbV</text><text x="302" y="236" text-anchor="middle" font-family="Arial, sans-serif" font-size="11" fill="rgb(0, 0, 0)" >A12</text></g><g id="1331" ><rect  x="121"  y="111"  width="67" height="52" fill="none" stroke="rgb(0, 0, 0)"  stroke-width="1"  stroke-dasharray="0,0"  /><text x="154" y="128" text-anchor="middle" font-family="Arial, sans-serif" font-size="11" fill="rgb(0, 0, 0)" >Use</text><text x="154" y="142" text-anchor="middle" font-family="Arial, sans-serif" font-size="11" fill="rgb(0, 0, 0)" > existing</text><text x="154" y="156" text-anchor="middle" font-family="Arial, sans-serif" font-size="11" fill="rgb(0, 0, 0)" > AbV</text><text x="174" y="160" text-anchor="middle" font-family="Arial, sans-serif" font-size="11" fill="rgb(0, 0, 0)" >A11</text></g><g id="1321"  stroke="rgb(0, 0, 0)" stroke-width="1" stroke-dasharray="0,0" ><line x1="86" y1="124" x2="105" y2="124" /><line x1="43" y1="124" x2="86" y2="124" /><text x="24" y="132" font-family="Arial, sans-serif" font-size="11" stroke="black" stroke-width="0" stroke-dasharray="0,0" >I1</text></g><g id="1321_1"  stroke="rgb(0, 0, 0)" stroke-width="1" stroke-dasharray="0,0" ><line x1="86" y1="124" x2="105" y2="124" /><line x1="105" y1="124" x2="121" y2="124" /><polygon points="117, 120 117, 128 121, 124" /></g><g id="1323"  stroke="rgb(0, 0, 0)" stroke-width="1" stroke-dasharray="0,0" ><line x1="572" y1="369" x2="572" y2="369" /><path fill="none" d="M572, 369 Q580, 369 580, 359" /><line x1="556" y1="369" x2="572" y2="369" /></g><g id="1323_1"  stroke="rgb(0, 0, 0)" stroke-width="1" stroke-dasharray="0,0" ><line x1="204" y1="124" x2="588" y2="124" /><line x1="188" y1="124" x2="204" y2="124" /></g><g id="1323_2"  stroke="rgb(0, 0, 0)" stroke-width="1" stroke-dasharray="0,0" ><line x1="204" y1="124" x2="588" y2="124" /><line x1="588" y1="124" x2="596" y2="124" /><polygon points="592, 120 592, 128 596, 124" /><text x="600" y="132" font-family="Arial, sans-serif" font-size="11" stroke="black" stroke-width="0" stroke-dasharray="0,0" >O1</text></g><g id="1323_3"  stroke="rgb(0, 0, 0)" stroke-width="1" stroke-dasharray="0,0" ><line x1="580" y1="134" x2="580" y2="359" /><path fill="none" d="M588, 124 Q580, 124 580, 134" /></g><g id="1340"  stroke="rgb(0, 0, 0)" stroke-width="1" stroke-dasharray="0,0" ><line x1="476" y1="369" x2="476" y2="369" /><line x1="476" y1="369" x2="492" y2="369" /><polygon points="488, 365 488, 373 492, 369" /></g><g id="1340_1"  stroke="rgb(0, 0, 0)" stroke-width="1" stroke-dasharray="0,0" ><line x1="332" y1="189" x2="460" y2="189" /><line x1="316" y1="189" x2="332" y2="189" /></g><g id="1340_2"  stroke="rgb(0, 0, 0)" stroke-width="1" stroke-dasharray="0,0" ><line x1="332" y1="189" x2="460" y2="189" /><path fill="none" d="M468, 199 Q468, 189 460, 189" /></g><g id="1340_3"  stroke="rgb(0, 0, 0)" stroke-width="1" stroke-dasharray="0,0" ><line x1="468" y1="199" x2="468" y2="359" /><path fill="none" d="M468, 359 Q468, 369 476, 369" /></g><g id="1341"  stroke="rgb(0, 0, 0)" stroke-width="1" stroke-dasharray="0,0" ><line x1="332" y1="209" x2="372" y2="209" /><line x1="316" y1="209" x2="332" y2="209" /></g><g id="1341_1"  stroke="rgb(0, 0, 0)" stroke-width="1" stroke-dasharray="0,0" ><line x1="332" y1="209" x2="372" y2="209" /><path fill="none" d="M380, 219 Q380, 209 372, 209" /></g><g id="1341_2"  stroke="rgb(0, 0, 0)" stroke-width="1" stroke-dasharray="0,0" ><line x1="380" y1="219" x2="380" y2="247" /><line x1="380" y1="247" x2="380" y2="255" /><polygon points="376, 251 384, 251 380, 255" /></g><g id="1349"  stroke="rgb(0, 0, 0)" stroke-width="1" stroke-dasharray="0,0" ><line x1="292" y1="79" x2="404" y2="79" /><path fill="none" d="M412, 89 Q412, 79 404, 79" /></g><g id="1349_1"  stroke="rgb(0, 0, 0)" stroke-width="1" stroke-dasharray="0,0" ><line x1="412" y1="89" x2="412" y2="247" /><line x1="412" y1="247" x2="412" y2="255" /><polygon points="408, 251 416, 251 412, 255" /></g><g id="1342"  stroke="rgb(0, 0, 0)" stroke-width="1" stroke-dasharray="0,0" ><line x1="348" y1="281" x2="348" y2="281" /><line x1="348" y1="281" x2="364" y2="281" /><polygon points="360, 277 360, 285 364, 281" /></g><g id="1342_1"  stroke="rgb(0, 0, 0)" stroke-width="1" stroke-dasharray="0,0" ><line x1="332" y1="229" x2="332" y2="229" /><path fill="none" d="M340, 239 Q340, 229 332, 229" /><line x1="316" y1="229" x2="332" y2="229" /></g><g id="1342_2"  stroke="rgb(0, 0, 0)" stroke-width="1" stroke-dasharray="0,0" ><line x1="340" y1="239" x2="340" y2="271" /><path fill="none" d="M340, 271 Q340, 281 348, 281" /></g><g id="1322"  stroke="rgb(0, 0, 0)" stroke-width="1" stroke-dasharray="0,0" ><line x1="292" y1="79" x2="404" y2="79" /></g><g id="1322_1"  stroke="rgb(0, 0, 0)" stroke-width="1" stroke-dasharray="0,0" ><line x1="284" y1="69" x2="284" y2="171" /><path fill="none" d="M284, 69 Q284, 79 292, 79" /><line x1="284" y1="41" x2="284" y2="69" /><text x="284" y="41" font-family="Arial, sans-serif" font-size="11" stroke="black" stroke-width="0" stroke-dasharray="0,0" >C1</text></g><g id="1322_2"  stroke="rgb(0, 0, 0)" stroke-width="1" stroke-dasharray="0,0" ><line x1="284" y1="69" x2="284" y2="171" /><line x1="284" y1="171" x2="284" y2="179" /><polygon points="280, 175 288, 175 284, 179" /></g><g id="1332"  stroke="rgb(0, 0, 0)" stroke-width="1" stroke-dasharray="0,0" ><line x1="236" y1="189" x2="236" y2="189" /><line x1="236" y1="189" x2="252" y2="189" /><polygon points="248, 185 248, 193 252, 189" /></g><g id="1332_1"  stroke="rgb(0, 0, 0)" stroke-width="1" stroke-dasharray="0,0" ><line x1="204" y1="150" x2="220" y2="150" /><path fill="none" d="M228, 160 Q228, 150 220, 150" /><line x1="188" y1="150" x2="204" y2="150" /></g><g id="1332_2"  stroke="rgb(0, 0, 0)" stroke-width="1" stroke-dasharray="0,0" ><line x1="228" y1="160" x2="228" y2="179" /><path fill="none" d="M228, 179 Q228, 189 236, 189" /></g><g id="1339"  stroke="rgb(0, 0, 0)" stroke-width="1" stroke-dasharray="0,0" ><line x1="220" y1="325" x2="444" y2="325" /><path fill="none" d="M212, 315 Q212, 325 220, 325" /></g><g id="1339_1"  stroke="rgb(0, 0, 0)" stroke-width="1" stroke-dasharray="0,0" ><line x1="444" y1="281" x2="444" y2="281" /><path fill="none" d="M452, 291 Q452, 281 444, 281" /><line x1="428" y1="281" x2="444" y2="281" /></g><g id="1339_2"  stroke="rgb(0, 0, 0)" stroke-width="1" stroke-dasharray="0,0" ><line x1="220" y1="209" x2="236" y2="209" /><line x1="236" y1="209" x2="252" y2="209" /><polygon points="248, 205 248, 213 252, 209" /></g><g id="1339_3"  stroke="rgb(0, 0, 0)" stroke-width="1" stroke-dasharray="0,0" ><line x1="452" y1="291" x2="452" y2="315" /><path fill="none" d="M444, 325 Q452, 325 452, 315" /></g><g id="1339_4"  stroke="rgb(0, 0, 0)" stroke-width="1" stroke-dasharray="0,0" ><line x1="212" y1="219" x2="212" y2="315" /><path fill="none" d="M220, 209 Q212, 209 212, 219" /></g><g id="1324"  stroke="rgb(0, 0, 0)" stroke-width="1" stroke-dasharray="0,0" ><line x1="162" y1="413" x2="372" y2="413" /><path fill="none" d="M276, 413 Q284, 413 284, 403" /><path fill="none" d="M372, 413 Q380, 413 380, 403" /></g><g id="1324_1"  stroke="rgb(0, 0, 0)" stroke-width="1" stroke-dasharray="0,0" ><line x1="380" y1="315" x2="380" y2="403" /><line x1="380" y1="307" x2="380" y2="315" /><polygon points="376, 311 384, 311 380, 307" /></g><g id="1324_2"  stroke="rgb(0, 0, 0)" stroke-width="1" stroke-dasharray="0,0" ><line x1="284" y1="247" x2="284" y2="403" /><line x1="284" y1="239" x2="284" y2="247" /><polygon points="280, 243 288, 243 284, 239" /></g><g id="1324_3"  stroke="rgb(0, 0, 0)" stroke-width="1" stroke-dasharray="0,0" ><line x1="154" y1="171" x2="154" y2="423" /><path fill="none" d="M162, 413 Q154, 413 154, 423" /><line x1="154" y1="423" x2="154" y2="468" /><text x="154" y="485" font-family="Arial, sans-serif" font-size="11" stroke="black" stroke-width="0" stroke-dasharray="0,0" >M1</text></g><g id="1324_4"  stroke="rgb(0, 0, 0)" stroke-width="1" stroke-dasharray="0,0" ><line x1="154" y1="171" x2="154" y2="423" /><line x1="154" y1="163" x2="154" y2="171" /><polygon points="150, 167 158, 167 154, 163" /></g><line x1="524" y1="395" x2="524" y2="468" /><polygon points="520, 464 528, 464 524, 468" /><text x="472" y="277" text-anchor="middle" font-family="Arial, sans-serif" font-size="11" fill="rgb(0, 0, 0)" >Token Value</text><line x1="444" y1="273" x2="441" y2="277" /><line x1="444" y1="273" x2="443" y2="277" /><line x1="444" y1="273" x2="441" y2="281" /><text x="362" y="185" text-anchor="middle" font-family="Arial, sans-serif" font-size="11" fill="rgb(0, 0, 0)" >Decoded AbV</text><line x1="332" y1="181" x2="329" y2="185" /><line x1="332" y1="181" x2="331" y2="185" /><line x1="332" y1="181" x2="329" y2="189" /><text x="360" y="205" text-anchor="middle" font-family="Arial, sans-serif" font-size="11" fill="rgb(0, 0, 0)" >Token Type</text><line x1="332" y1="201" x2="329" y2="205" /><line x1="332" y1="201" x2="331" y2="205" /><line x1="332" y1="201" x2="329" y2="209" /><text x="360" y="225" text-anchor="middle" font-family="Arial, sans-serif" font-size="11" fill="rgb(0, 0, 0)" >Value Buffer</text><line x1="332" y1="221" x2="329" y2="225" /><line x1="332" y1="221" x2="331" y2="225" /><line x1="332" y1="221" x2="329" y2="229" /><text x="78" y="120" text-anchor="middle" font-family="Arial, sans-serif" font-size="11" fill="rgb(0, 0, 0)" >Given Value</text><line x1="51" y1="116" x2="48" y2="120" /><line x1="51" y1="116" x2="50" y2="120" /><line x1="51" y1="116" x2="48" y2="124" /><text x="230" y="146" text-anchor="middle" font-family="Arial, sans-serif" font-size="11" fill="rgb(0, 0, 0)" >Value Bytes</text><line x1="204" y1="142" x2="201" y2="146" /><line x1="204" y1="142" x2="203" y2="146" /><line x1="204" y1="142" x2="201" y2="150" /><text x="557" y="120" text-anchor="middle" font-family="Arial, sans-serif" font-size="11" fill="rgb(0, 0, 0)" >Given as AbV</text><line x1="588" y1="116" x2="590" y2="120" /><line x1="588" y1="116" x2="588" y2="120" /><line x1="588" y1="116" x2="591" y2="124" /><text x="447" y="244" text-anchor="middle" font-family="Arial, sans-serif" font-size="11" fill="rgb(0, 0, 0)" >CDU Types</text><line x1="420" y1="239" x2="416" y2="242" /><line x1="420" y1="239" x2="416" y2="244" /><line x1="420" y1="239" x2="412" y2="247" /><text x="352" y="55" text-anchor="middle" font-family="Arial, sans-serif" font-size="11" fill="rgb(0, 0, 0)" >Encoding Specification (Format 0, CDU)</text><line x1="292" y1="50" x2="288" y2="48" /><line x1="292" y1="50" x2="288" y2="50" /><line x1="292" y1="50" x2="284" y2="48" /><text x="205" y="457" text-anchor="middle" font-family="Arial, sans-serif" font-size="11" fill="rgb(0, 0, 0)" >PostgreSQL Server</text><line x1="162" y1="452" x2="158" y2="450" /><line x1="162" y1="452" x2="158" y2="452" /><line x1="162" y1="452" x2="154" y2="450" /><text x="561" y="457" text-anchor="middle" font-family="Arial, sans-serif" font-size="11" fill="rgb(0, 0, 0)" >Model/A*33</text><line x1="532" y1="452" x2="528" y2="450" /><line x1="532" y1="452" x2="528" y2="452" /><line x1="532" y1="452" x2="524" y2="450" /></svg>

