<?xml version="1.0" encoding="iso-8859-1"?><svg xmlns="http://www.w3.org/2000/svg" xmlns:xlink="http://www.w3.org/1999/xlink" xml:space="preserve" width="1017" height="770" id="1382" ><g id="1435" ><rect  x="715"  y="569"  width="64" height="66" fill="none" stroke="rgb(0, 0, 0)"  stroke-width="1"  stroke-dasharray="0,0"  /><text x="747" y="586" text-anchor="middle" font-family="Arial, sans-serif" font-size="11" fill="rgb(0, 0, 0)" >Normalise</text><text x="747" y="600" text-anchor="middle" font-family="Arial, sans-serif" font-size="11" fill="rgb(0, 0, 0)" > (Clean &amp;</text><text x="747" y="614" text-anchor="middle" font-family="Arial, sans-serif" font-size="11" fill="rgb(0, 0, 0)" > Defrag)</text><text x="765" y="632" text-anchor="middle" font-family="Arial, sans-serif" font-size="11" fill="rgb(0, 0, 0)" >A25</text></g><g id="1428" ><rect  x="587"  y="473"  width="64" height="80" fill="none" stroke="rgb(0, 0, 0)"  stroke-width="1"  stroke-dasharray="0,0"  /><text x="618" y="497" text-anchor="middle" font-family="Arial, sans-serif" font-size="11" fill="rgb(0, 0, 0)" >Determine</text><text x="618" y="511" text-anchor="middle" font-family="Arial, sans-serif" font-size="11" fill="rgb(0, 0, 0)" > Output</text><text x="618" y="525" text-anchor="middle" font-family="Arial, sans-serif" font-size="11" fill="rgb(0, 0, 0)" > per</text><text x="618" y="539" text-anchor="middle" font-family="Arial, sans-serif" font-size="11" fill="rgb(0, 0, 0)" > Fragment</text><text x="637" y="550" text-anchor="middle" font-family="Arial, sans-serif" font-size="11" fill="rgb(0, 0, 0)" >A24</text></g><g id="1421" ><rect  x="475"  y="397"  width="64" height="60" fill="none" stroke="rgb(0, 0, 0)"  stroke-width="1"  stroke-dasharray="0,0"  /><text x="506" y="418" text-anchor="middle" font-family="Arial, sans-serif" font-size="11" fill="rgb(0, 0, 0)" >Fragment</text><text x="506" y="432" text-anchor="middle" font-family="Arial, sans-serif" font-size="11" fill="rgb(0, 0, 0)" > Input(s)</text><text x="525" y="454" text-anchor="middle" font-family="Arial, sans-serif" font-size="11" fill="rgb(0, 0, 0)" >A23</text></g><g id="1414" ><rect  x="331"  y="301"  width="64" height="80" fill="none" stroke="rgb(0, 0, 0)"  stroke-width="1"  stroke-dasharray="0,0"  /><text x="363" y="325" text-anchor="middle" font-family="Arial, sans-serif" font-size="11" fill="rgb(0, 0, 0)" >Determine</text><text x="363" y="339" text-anchor="middle" font-family="Arial, sans-serif" font-size="11" fill="rgb(0, 0, 0)" > output</text><text x="363" y="353" text-anchor="middle" font-family="Arial, sans-serif" font-size="11" fill="rgb(0, 0, 0)" > by AvB</text><text x="381" y="378" text-anchor="middle" font-family="Arial, sans-serif" font-size="11" fill="rgb(0, 0, 0)" >A22</text></g><g id="1403" ><rect  x="143"  y="125"  width="124" height="160" fill="none" stroke="rgb(0, 0, 0)"  stroke-width="1"  stroke-dasharray="0,0"  /><text x="204" y="203" text-anchor="middle" font-family="Arial, sans-serif" font-size="11" fill="rgb(0, 0, 0)" >SSK/AGG Function Exec</text><text x="253" y="282" text-anchor="middle" font-family="Arial, sans-serif" font-size="11" fill="rgb(0, 0, 0)" >A21</text></g><g id="1395"  stroke="rgb(0, 0, 0)" stroke-width="1" stroke-dasharray="0,0" ><line x1="795" y1="585" x2="843" y2="585" /><line x1="779" y1="585" x2="795" y2="585" /></g><g id="1395_1"  stroke="rgb(0, 0, 0)" stroke-width="1" stroke-dasharray="0,0" ><line x1="795" y1="585" x2="843" y2="585" /><line x1="843" y1="585" x2="950" y2="585" /><polygon points="946, 581 946, 589 950, 585" /><text x="954" y="593" font-family="Arial, sans-serif" font-size="11" stroke="black" stroke-width="0" stroke-dasharray="0,0" >O4</text></g><g id="1383"  stroke="rgb(0, 0, 0)" stroke-width="1" stroke-dasharray="0,0" ><line x1="108" y1="135" x2="127" y2="135" /><line x1="43" y1="135" x2="108" y2="135" /><text x="24" y="143" font-family="Arial, sans-serif" font-size="11" stroke="black" stroke-width="0" stroke-dasharray="0,0" >I1</text></g><g id="1383_1"  stroke="rgb(0, 0, 0)" stroke-width="1" stroke-dasharray="0,0" ><line x1="108" y1="135" x2="127" y2="135" /><line x1="127" y1="135" x2="143" y2="135" /><polygon points="139, 131 139, 139 143, 135" /></g><g id="1384"  stroke="rgb(0, 0, 0)" stroke-width="1" stroke-dasharray="0,0" ><line x1="108" y1="155" x2="127" y2="155" /><line x1="43" y1="155" x2="108" y2="155" /><text x="24" y="163" font-family="Arial, sans-serif" font-size="11" stroke="black" stroke-width="0" stroke-dasharray="0,0" >I2</text></g><g id="1384_1"  stroke="rgb(0, 0, 0)" stroke-width="1" stroke-dasharray="0,0" ><line x1="108" y1="155" x2="127" y2="155" /><line x1="127" y1="155" x2="143" y2="155" /><polygon points="139, 151 139, 159 143, 155" /></g><g id="1385"  stroke="rgb(0, 0, 0)" stroke-width="1" stroke-dasharray="0,0" ><line x1="108" y1="175" x2="127" y2="175" /><line x1="43" y1="175" x2="108" y2="175" /><text x="24" y="183" font-family="Arial, sans-serif" font-size="11" stroke="black" stroke-width="0" stroke-dasharray="0,0" >I3</text></g><g id="1385_1"  stroke="rgb(0, 0, 0)" stroke-width="1" stroke-dasharray="0,0" ><line x1="108" y1="175" x2="127" y2="175" /><line x1="127" y1="175" x2="143" y2="175" /><polygon points="139, 171 139, 179 143, 175" /></g><g id="1392"  stroke="rgb(0, 0, 0)" stroke-width="1" stroke-dasharray="0,0" ><line x1="667" y1="483" x2="795" y2="483" /><path fill="none" d="M795, 483 Q803, 483 803, 473" /><line x1="651" y1="483" x2="667" y2="483" /></g><g id="1392_1"  stroke="rgb(0, 0, 0)" stroke-width="1" stroke-dasharray="0,0" ><line x1="411" y1="311" x2="795" y2="311" /><path fill="none" d="M795, 311 Q803, 311 803, 301" /><line x1="395" y1="311" x2="411" y2="311" /></g><g id="1392_2"  stroke="rgb(0, 0, 0)" stroke-width="1" stroke-dasharray="0,0" ><line x1="283" y1="135" x2="843" y2="135" /><line x1="267" y1="135" x2="283" y2="135" /></g><g id="1392_3"  stroke="rgb(0, 0, 0)" stroke-width="1" stroke-dasharray="0,0" ><line x1="283" y1="135" x2="843" y2="135" /><line x1="843" y1="135" x2="950" y2="135" /><polygon points="946, 131 946, 139 950, 135" /><text x="954" y="143" font-family="Arial, sans-serif" font-size="11" stroke="black" stroke-width="0" stroke-dasharray="0,0" >O3</text></g><g id="1392_4"  stroke="rgb(0, 0, 0)" stroke-width="1" stroke-dasharray="0,0" ><line x1="803" y1="145" x2="803" y2="473" /><path fill="none" d="M811, 135 Q803, 135 803, 145" /></g><g id="1393"  stroke="rgb(0, 0, 0)" stroke-width="1" stroke-dasharray="0,0" ><line x1="667" y1="503" x2="811" y2="503" /><path fill="none" d="M811, 503 Q819, 503 819, 493" /><line x1="651" y1="503" x2="667" y2="503" /></g><g id="1393_1"  stroke="rgb(0, 0, 0)" stroke-width="1" stroke-dasharray="0,0" ><line x1="411" y1="331" x2="811" y2="331" /><path fill="none" d="M811, 331 Q819, 331 819, 321" /><line x1="395" y1="331" x2="411" y2="331" /></g><g id="1393_2"  stroke="rgb(0, 0, 0)" stroke-width="1" stroke-dasharray="0,0" ><line x1="283" y1="155" x2="843" y2="155" /><line x1="267" y1="155" x2="283" y2="155" /></g><g id="1393_3"  stroke="rgb(0, 0, 0)" stroke-width="1" stroke-dasharray="0,0" ><line x1="283" y1="155" x2="843" y2="155" /><line x1="843" y1="155" x2="950" y2="155" /><polygon points="946, 151 946, 159 950, 155" /><text x="954" y="163" font-family="Arial, sans-serif" font-size="11" stroke="black" stroke-width="0" stroke-dasharray="0,0" >O2</text></g><g id="1393_4"  stroke="rgb(0, 0, 0)" stroke-width="1" stroke-dasharray="0,0" ><line x1="819" y1="165" x2="819" y2="493" /><path fill="none" d="M827, 155 Q819, 155 819, 165" /></g><g id="1394"  stroke="rgb(0, 0, 0)" stroke-width="1" stroke-dasharray="0,0" ><line x1="667" y1="523" x2="827" y2="523" /><path fill="none" d="M827, 523 Q835, 523 835, 513" /><line x1="651" y1="523" x2="667" y2="523" /></g><g id="1394_1"  stroke="rgb(0, 0, 0)" stroke-width="1" stroke-dasharray="0,0" ><line x1="411" y1="351" x2="827" y2="351" /><path fill="none" d="M827, 351 Q835, 351 835, 341" /><line x1="395" y1="351" x2="411" y2="351" /></g><g id="1394_2"  stroke="rgb(0, 0, 0)" stroke-width="1" stroke-dasharray="0,0" ><line x1="283" y1="175" x2="843" y2="175" /><line x1="267" y1="175" x2="283" y2="175" /></g><g id="1394_3"  stroke="rgb(0, 0, 0)" stroke-width="1" stroke-dasharray="0,0" ><line x1="283" y1="175" x2="843" y2="175" /><line x1="843" y1="175" x2="950" y2="175" /><polygon points="946, 171 946, 179 950, 175" /><text x="954" y="183" font-family="Arial, sans-serif" font-size="11" stroke="black" stroke-width="0" stroke-dasharray="0,0" >O1</text></g><g id="1394_4"  stroke="rgb(0, 0, 0)" stroke-width="1" stroke-dasharray="0,0" ><line x1="835" y1="185" x2="835" y2="513" /><path fill="none" d="M843, 175 Q835, 175 835, 185" /></g><g id="1415"  stroke="rgb(0, 0, 0)" stroke-width="1" stroke-dasharray="0,0" ><line x1="699" y1="585" x2="699" y2="585" /><line x1="699" y1="585" x2="715" y2="585" /><polygon points="711, 581 711, 589 715, 585" /></g><g id="1415_1"  stroke="rgb(0, 0, 0)" stroke-width="1" stroke-dasharray="0,0" ><line x1="411" y1="371" x2="683" y2="371" /><line x1="395" y1="371" x2="411" y2="371" /></g><g id="1415_2"  stroke="rgb(0, 0, 0)" stroke-width="1" stroke-dasharray="0,0" ><line x1="411" y1="371" x2="683" y2="371" /><path fill="none" d="M691, 381 Q691, 371 683, 371" /></g><g id="1415_3"  stroke="rgb(0, 0, 0)" stroke-width="1" stroke-dasharray="0,0" ><line x1="691" y1="381" x2="691" y2="575" /><path fill="none" d="M691, 575 Q691, 585 699, 585" /></g><g id="1429"  stroke="rgb(0, 0, 0)" stroke-width="1" stroke-dasharray="0,0" ><line x1="683" y1="618" x2="699" y2="618" /><line x1="699" y1="618" x2="715" y2="618" /><polygon points="711, 614 711, 622 715, 618" /></g><g id="1429_1"  stroke="rgb(0, 0, 0)" stroke-width="1" stroke-dasharray="0,0" ><line x1="667" y1="543" x2="667" y2="543" /><path fill="none" d="M675, 553 Q675, 543 667, 543" /><line x1="651" y1="543" x2="667" y2="543" /></g><g id="1429_2"  stroke="rgb(0, 0, 0)" stroke-width="1" stroke-dasharray="0,0" ><line x1="675" y1="553" x2="675" y2="608" /><path fill="none" d="M675, 608 Q675, 618 683, 618" /></g><g id="1422"  stroke="rgb(0, 0, 0)" stroke-width="1" stroke-dasharray="0,0" ><line x1="571" y1="483" x2="571" y2="483" /><line x1="571" y1="483" x2="587" y2="483" /><polygon points="583, 479 583, 487 587, 483" /></g><g id="1422_1"  stroke="rgb(0, 0, 0)" stroke-width="1" stroke-dasharray="0,0" ><line x1="555" y1="407" x2="555" y2="407" /><path fill="none" d="M563, 417 Q563, 407 555, 407" /><line x1="539" y1="407" x2="555" y2="407" /></g><g id="1422_2"  stroke="rgb(0, 0, 0)" stroke-width="1" stroke-dasharray="0,0" ><line x1="563" y1="417" x2="563" y2="473" /><path fill="none" d="M563, 473 Q563, 483 571, 483" /></g><g id="1404"  stroke="rgb(0, 0, 0)" stroke-width="1" stroke-dasharray="0,0" ><line x1="459" y1="407" x2="459" y2="407" /><line x1="459" y1="407" x2="475" y2="407" /><polygon points="471, 403 471, 411 475, 407" /></g><g id="1404_1"  stroke="rgb(0, 0, 0)" stroke-width="1" stroke-dasharray="0,0" ><line x1="283" y1="195" x2="443" y2="195" /><line x1="267" y1="195" x2="283" y2="195" /></g><g id="1404_2"  stroke="rgb(0, 0, 0)" stroke-width="1" stroke-dasharray="0,0" ><line x1="283" y1="195" x2="443" y2="195" /><path fill="none" d="M451, 205 Q451, 195 443, 195" /></g><g id="1404_3"  stroke="rgb(0, 0, 0)" stroke-width="1" stroke-dasharray="0,0" ><line x1="451" y1="205" x2="451" y2="397" /><path fill="none" d="M451, 397 Q451, 407 459, 407" /></g><g id="1405"  stroke="rgb(0, 0, 0)" stroke-width="1" stroke-dasharray="0,0" ><line x1="443" y1="427" x2="459" y2="427" /><line x1="459" y1="427" x2="475" y2="427" /><polygon points="471, 423 471, 431 475, 427" /></g><g id="1405_1"  stroke="rgb(0, 0, 0)" stroke-width="1" stroke-dasharray="0,0" ><line x1="283" y1="215" x2="427" y2="215" /><line x1="267" y1="215" x2="283" y2="215" /></g><g id="1405_2"  stroke="rgb(0, 0, 0)" stroke-width="1" stroke-dasharray="0,0" ><line x1="283" y1="215" x2="427" y2="215" /><path fill="none" d="M435, 225 Q435, 215 427, 215" /></g><g id="1405_3"  stroke="rgb(0, 0, 0)" stroke-width="1" stroke-dasharray="0,0" ><line x1="435" y1="225" x2="435" y2="417" /><path fill="none" d="M435, 417 Q435, 427 443, 427" /></g><g id="1406"  stroke="rgb(0, 0, 0)" stroke-width="1" stroke-dasharray="0,0" ><line x1="283" y1="255" x2="611" y2="255" /><line x1="267" y1="255" x2="283" y2="255" /></g><g id="1406_1"  stroke="rgb(0, 0, 0)" stroke-width="1" stroke-dasharray="0,0" ><line x1="283" y1="255" x2="611" y2="255" /><path fill="none" d="M363, 265 Q363, 255 355, 255" /><path fill="none" d="M507, 265 Q507, 255 499, 255" /><path fill="none" d="M619, 265 Q619, 255 611, 255" /></g><g id="1406_2"  stroke="rgb(0, 0, 0)" stroke-width="1" stroke-dasharray="0,0" ><line x1="619" y1="265" x2="619" y2="465" /><line x1="619" y1="465" x2="619" y2="473" /><polygon points="615, 469 623, 469 619, 473" /></g><g id="1406_3"  stroke="rgb(0, 0, 0)" stroke-width="1" stroke-dasharray="0,0" ><line x1="507" y1="265" x2="507" y2="389" /><line x1="507" y1="389" x2="507" y2="397" /><polygon points="503, 393 511, 393 507, 397" /></g><g id="1406_4"  stroke="rgb(0, 0, 0)" stroke-width="1" stroke-dasharray="0,0" ><line x1="363" y1="265" x2="363" y2="293" /><line x1="363" y1="293" x2="363" y2="301" /><polygon points="359, 297 367, 297 363, 301" /></g><g id="1407"  stroke="rgb(0, 0, 0)" stroke-width="1" stroke-dasharray="0,0" ><line x1="315" y1="311" x2="315" y2="311" /><line x1="315" y1="311" x2="331" y2="311" /><polygon points="327, 307 327, 315 331, 311" /></g><g id="1407_1"  stroke="rgb(0, 0, 0)" stroke-width="1" stroke-dasharray="0,0" ><line x1="283" y1="275" x2="299" y2="275" /><path fill="none" d="M307, 285 Q307, 275 299, 275" /><line x1="267" y1="275" x2="283" y2="275" /></g><g id="1407_2"  stroke="rgb(0, 0, 0)" stroke-width="1" stroke-dasharray="0,0" ><line x1="307" y1="285" x2="307" y2="301" /><path fill="none" d="M307, 301 Q307, 311 315, 311" /></g><g id="1408"  stroke="rgb(0, 0, 0)" stroke-width="1" stroke-dasharray="0,0" ><line x1="427" y1="447" x2="459" y2="447" /><line x1="459" y1="447" x2="475" y2="447" /><polygon points="471, 443 471, 451 475, 447" /></g><g id="1408_1"  stroke="rgb(0, 0, 0)" stroke-width="1" stroke-dasharray="0,0" ><line x1="299" y1="331" x2="315" y2="331" /><line x1="315" y1="331" x2="331" y2="331" /><polygon points="327, 327 327, 335 331, 331" /></g><g id="1408_2"  stroke="rgb(0, 0, 0)" stroke-width="1" stroke-dasharray="0,0" ><line x1="283" y1="235" x2="411" y2="235" /><path fill="none" d="M291, 245 Q291, 235 283, 235" /><line x1="267" y1="235" x2="283" y2="235" /></g><g id="1408_3"  stroke="rgb(0, 0, 0)" stroke-width="1" stroke-dasharray="0,0" ><line x1="283" y1="235" x2="411" y2="235" /><path fill="none" d="M419, 245 Q419, 235 411, 235" /></g><g id="1408_4"  stroke="rgb(0, 0, 0)" stroke-width="1" stroke-dasharray="0,0" ><line x1="419" y1="245" x2="419" y2="437" /><path fill="none" d="M419, 437 Q419, 447 427, 447" /></g><g id="1408_5"  stroke="rgb(0, 0, 0)" stroke-width="1" stroke-dasharray="0,0" ><line x1="291" y1="245" x2="291" y2="321" /><path fill="none" d="M291, 321 Q291, 331 299, 331" /></g><g id="1386"  stroke="rgb(0, 0, 0)" stroke-width="1" stroke-dasharray="0,0" ><line x1="174" y1="103" x2="174" y2="117" /><line x1="174" y1="41" x2="174" y2="103" /><text x="174" y="41" font-family="Arial, sans-serif" font-size="11" stroke="black" stroke-width="0" stroke-dasharray="0,0" >C1</text></g><g id="1386_1"  stroke="rgb(0, 0, 0)" stroke-width="1" stroke-dasharray="0,0" ><line x1="174" y1="103" x2="174" y2="117" /><line x1="174" y1="117" x2="174" y2="125" /><polygon points="170, 121 178, 121 174, 125" /></g><g id="1391"  stroke="rgb(0, 0, 0)" stroke-width="1" stroke-dasharray="0,0" ><line x1="236" y1="103" x2="236" y2="117" /><line x1="236" y1="41" x2="236" y2="103" /><text x="236" y="41" font-family="Arial, sans-serif" font-size="11" stroke="black" stroke-width="0" stroke-dasharray="0,0" >C2</text></g><g id="1391_1"  stroke="rgb(0, 0, 0)" stroke-width="1" stroke-dasharray="0,0" ><line x1="236" y1="103" x2="236" y2="117" /><line x1="236" y1="117" x2="236" y2="125" /><polygon points="232, 121 240, 121 236, 125" /></g><g id="1396"  stroke="rgb(0, 0, 0)" stroke-width="1" stroke-dasharray="0,0" ><line x1="182" y1="653" x2="739" y2="653" /><path fill="none" d="M355, 653 Q363, 653 363, 643" /><path fill="none" d="M499, 653 Q507, 653 507, 643" /><path fill="none" d="M611, 653 Q619, 653 619, 643" /><path fill="none" d="M739, 653 Q747, 653 747, 643" /></g><g id="1396_1"  stroke="rgb(0, 0, 0)" stroke-width="1" stroke-dasharray="0,0" ><line x1="747" y1="643" x2="747" y2="643" /><line x1="747" y1="635" x2="747" y2="643" /><polygon points="743, 639 751, 639 747, 635" /></g><g id="1396_2"  stroke="rgb(0, 0, 0)" stroke-width="1" stroke-dasharray="0,0" ><line x1="619" y1="561" x2="619" y2="643" /><line x1="619" y1="553" x2="619" y2="561" /><polygon points="615, 557 623, 557 619, 553" /></g><g id="1396_3"  stroke="rgb(0, 0, 0)" stroke-width="1" stroke-dasharray="0,0" ><line x1="507" y1="465" x2="507" y2="643" /><line x1="507" y1="457" x2="507" y2="465" /><polygon points="503, 461 511, 461 507, 457" /></g><g id="1396_4"  stroke="rgb(0, 0, 0)" stroke-width="1" stroke-dasharray="0,0" ><line x1="363" y1="389" x2="363" y2="643" /><line x1="363" y1="381" x2="363" y2="389" /><polygon points="359, 385 367, 385 363, 381" /></g><g id="1396_5"  stroke="rgb(0, 0, 0)" stroke-width="1" stroke-dasharray="0,0" ><line x1="174" y1="293" x2="174" y2="663" /><path fill="none" d="M182, 653 Q174, 653 174, 663" /><line x1="174" y1="663" x2="174" y2="708" /><text x="174" y="725" font-family="Arial, sans-serif" font-size="11" stroke="black" stroke-width="0" stroke-dasharray="0,0" >M1</text></g><g id="1396_6"  stroke="rgb(0, 0, 0)" stroke-width="1" stroke-dasharray="0,0" ><line x1="174" y1="293" x2="174" y2="663" /><line x1="174" y1="285" x2="174" y2="293" /><polygon points="170, 289 178, 289 174, 285" /></g><text x="892" y="581" text-anchor="middle" font-family="Arial, sans-serif" font-size="11" fill="rgb(0, 0, 0)" >Canonical Result AbV</text><line x1="942" y1="577" x2="944" y2="581" /><line x1="942" y1="577" x2="942" y2="581" /><line x1="942" y1="577" x2="945" y2="585" /><text x="710" y="539" text-anchor="middle" font-family="Arial, sans-serif" font-size="11" fill="rgb(0, 0, 0)" >Dirty FragmentSet</text><line x1="667" y1="535" x2="664" y2="539" /><line x1="667" y1="535" x2="666" y2="539" /><line x1="667" y1="535" x2="664" y2="543" /><text x="598" y="403" text-anchor="middle" font-family="Arial, sans-serif" font-size="11" fill="rgb(0, 0, 0)" >Fresh FragmentSet</text><line x1="555" y1="399" x2="552" y2="403" /><line x1="555" y1="399" x2="554" y2="403" /><line x1="555" y1="399" x2="552" y2="407" /><text x="434" y="367" text-anchor="middle" font-family="Arial, sans-serif" font-size="11" fill="rgb(0, 0, 0)" >Dirty AvB</text><line x1="411" y1="363" x2="408" y2="367" /><line x1="411" y1="363" x2="410" y2="367" /><line x1="411" y1="363" x2="408" y2="371" /><text x="81" y="131" text-anchor="middle" font-family="Arial, sans-serif" font-size="11" fill="rgb(0, 0, 0)" >Given as AbV</text><line x1="51" y1="127" x2="48" y2="131" /><line x1="51" y1="127" x2="50" y2="131" /><line x1="51" y1="127" x2="48" y2="135" /><text x="85" y="151" text-anchor="middle" font-family="Arial, sans-serif" font-size="11" fill="rgb(0, 0, 0)" >Given BIGINT</text><line x1="51" y1="147" x2="48" y2="151" /><line x1="51" y1="147" x2="50" y2="151" /><line x1="51" y1="147" x2="48" y2="155" /><text x="89" y="171" text-anchor="middle" font-family="Arial, sans-serif" font-size="11" fill="rgb(0, 0, 0)" >Given BIGINT[]</text><line x1="51" y1="167" x2="48" y2="171" /><line x1="51" y1="167" x2="50" y2="171" /><line x1="51" y1="167" x2="48" y2="175" /><text x="312" y="191" text-anchor="middle" font-family="Arial, sans-serif" font-size="11" fill="rgb(0, 0, 0)" >AbV Param2</text><line x1="283" y1="187" x2="280" y2="191" /><line x1="283" y1="187" x2="282" y2="191" /><line x1="283" y1="187" x2="280" y2="195" /><text x="322" y="211" text-anchor="middle" font-family="Arial, sans-serif" font-size="11" fill="rgb(0, 0, 0)" >BIGINT[] Param</text><line x1="283" y1="207" x2="280" y2="211" /><line x1="283" y1="207" x2="282" y2="211" /><line x1="283" y1="207" x2="280" y2="215" /><text x="324" y="251" text-anchor="middle" font-family="Arial, sans-serif" font-size="11" fill="rgb(0, 0, 0)" >Function Callback</text><line x1="283" y1="247" x2="280" y2="251" /><line x1="283" y1="247" x2="282" y2="251" /><line x1="283" y1="247" x2="280" y2="255" /><text x="318" y="271" text-anchor="middle" font-family="Arial, sans-serif" font-size="11" fill="rgb(0, 0, 0)" >BIGINT Param</text><line x1="283" y1="267" x2="280" y2="271" /><line x1="283" y1="267" x2="282" y2="271" /><line x1="283" y1="267" x2="280" y2="275" /><text x="309" y="231" text-anchor="middle" font-family="Arial, sans-serif" font-size="11" fill="rgb(0, 0, 0)" >AbV Param</text><line x1="283" y1="227" x2="280" y2="231" /><line x1="283" y1="227" x2="282" y2="231" /><line x1="283" y1="227" x2="280" y2="235" /><text x="900" y="131" text-anchor="middle" font-family="Arial, sans-serif" font-size="11" fill="rgb(0, 0, 0)" >Resulting BIGINT</text><line x1="942" y1="127" x2="944" y2="131" /><line x1="942" y1="127" x2="942" y2="131" /><line x1="942" y1="127" x2="945" y2="135" /><text x="893" y="151" text-anchor="middle" font-family="Arial, sans-serif" font-size="11" fill="rgb(0, 0, 0)" >Resulting BOOLEAN</text><line x1="942" y1="147" x2="944" y2="151" /><line x1="942" y1="147" x2="942" y2="151" /><line x1="942" y1="147" x2="945" y2="155" /><text x="896" y="171" text-anchor="middle" font-family="Arial, sans-serif" font-size="11" fill="rgb(0, 0, 0)" >Resulting BIGINT[]</text><line x1="942" y1="167" x2="944" y2="171" /><line x1="942" y1="167" x2="942" y2="171" /><line x1="942" y1="167" x2="945" y2="175" /><text x="242" y="55" text-anchor="middle" font-family="Arial, sans-serif" font-size="11" fill="rgb(0, 0, 0)" >Formal SSK Type Definition</text><line x1="182" y1="50" x2="178" y2="48" /><line x1="182" y1="50" x2="178" y2="50" /><line x1="182" y1="50" x2="174" y2="48" /><text x="300" y="72" text-anchor="middle" font-family="Arial, sans-serif" font-size="11" fill="rgb(0, 0, 0)" >Extension Function Call</text><line x1="244" y1="67" x2="240" y2="65" /><line x1="244" y1="67" x2="240" y2="67" /><line x1="244" y1="67" x2="236" y2="65" /><text x="225" y="697" text-anchor="middle" font-family="Arial, sans-serif" font-size="11" fill="rgb(0, 0, 0)" >PostgreSQL Server</text><line x1="182" y1="692" x2="178" y2="690" /><line x1="182" y1="692" x2="178" y2="692" /><line x1="182" y1="692" x2="174" y2="690" /></svg>
