<?xml version="1.0" encoding="iso-8859-1"?>
<svg xmlns="http://www.w3.org/2000/svg" xmlns:xlink="http://www.w3.org/1999/xlink" xml:space="preserve" width="653" height="465" id="1450" >
  <rect x="0" y="0" width="653" height="465" fill="white"/>
  <g id="1477" >
    <rect  x="422"  y="264"  width="71" height="66" fill="none" stroke="rgb(0, 0, 0)"  stroke-width="1"  stroke-dasharray="0,0"  />
    <text x="457" y="281"  text-anchor = "middle" font-family="Times New Roman"  font-size="11"  fill ="rgb(0, 0, 0)" >Conditionally</text>
    <text x="457" y="295"  text-anchor = "middle" font-family="Times New Roman"  font-size="11"  fill ="rgb(0, 0, 0)" > Remember AbV</text>
    <text x="479" y="327"  text-anchor = "middle" font-family="Times New Roman"  font-size="11"  fill ="rgb(0, 0, 0)" >A33</text>
  </g>
  <g id="1470" >
    <rect  x="294"  y="176"  width="64" height="52" fill="none" stroke="rgb(0, 0, 0)"  stroke-width="1"  stroke-dasharray="0,0"  />
    <text x="325" y="193"  text-anchor = "middle" font-family="Times New Roman"  font-size="11"  fill ="rgb(0, 0, 0)" >Encode</text>
    <text x="325" y="207"  text-anchor = "middle" font-family="Times New Roman"  font-size="11"  fill ="rgb(0, 0, 0)" > Token</text>
    <text x="344" y="225"  text-anchor = "middle" font-family="Times New Roman"  font-size="11"  fill ="rgb(0, 0, 0)" >A32</text>
  </g>
  <g id="1461" >
    <rect  x="182"  y="111"  width="64" height="49" fill="none" stroke="rgb(0, 0, 0)"  stroke-width="1"  stroke-dasharray="0,0"  />
    <text x="214" y="134"  text-anchor = "middle" font-family="Times New Roman"  font-size="11"  fill ="rgb(0, 0, 0)" >Encode AbV</text>
    <text x="232" y="157"  text-anchor = "middle" font-family="Times New Roman"  font-size="11"  fill ="rgb(0, 0, 0)" >A31</text>
  </g>
  <g id="1453"  stroke="rgb(0, 0, 0)" stroke-width="1" stroke-dasharray="0,0" >
     <line x1="509" y1="297" x2="509" y2="297" />
     <line x1="493" y1="297" x2="509" y2="297" />
  </g>
  <g id="1453"  stroke="rgb(0, 0, 0)" stroke-width="1" stroke-dasharray="0,0" >
     <line x1="509" y1="297" x2="509" y2="297" />
     <line x1="509" y1="297" x2="586" y2="297" />
     <polygon points="582, 293 582, 301 586, 297" />
    <text x="590" y="305" font-family="Times New Roman" font-size="11" stroke="black" stroke-width="0" stroke-dasharray="0,0" >O1</text>
  </g>
  <g id="1451"  stroke="rgb(0, 0, 0)" stroke-width="1" stroke-dasharray="0,0" >
     <line x1="131" y1="123" x2="166" y2="123" />
     <line x1="43" y1="123" x2="131" y2="123" />
    <text x="24" y="131" font-family="Times New Roman" font-size="11" stroke="black" stroke-width="0" stroke-dasharray="0,0" >I1</text>
  </g>
  <g id="1451"  stroke="rgb(0, 0, 0)" stroke-width="1" stroke-dasharray="0,0" >
     <line x1="131" y1="123" x2="166" y2="123" />
     <line x1="166" y1="123" x2="182" y2="123" />
     <polygon points="178, 119 178, 127 182, 123" />
  </g>
  <g id="1463"  stroke="rgb(0, 0, 0)" stroke-width="1" stroke-dasharray="0,0" >
     <line x1="406" y1="297" x2="406" y2="297" />
     <line x1="406" y1="297" x2="422" y2="297" />
     <polygon points="418, 293 418, 301 422, 297" />
  </g>
  <g id="1463"  stroke="rgb(0, 0, 0)" stroke-width="1" stroke-dasharray="0,0" >
     <line x1="262" y1="123" x2="390" y2="123" />
     <line x1="246" y1="123" x2="262" y2="123" />
  </g>
  <g id="1463"  stroke="rgb(0, 0, 0)" stroke-width="1" stroke-dasharray="0,0" >
     <line x1="262" y1="123" x2="390" y2="123" />
     <path fill="none" d="M398, 133 Q398, 123 390, 123" />
  </g>
  <g id="1463"  stroke="rgb(0, 0, 0)" stroke-width="1" stroke-dasharray="0,0" >
     <line x1="398" y1="133" x2="398" y2="287" />
     <path fill="none" d="M398, 287 Q398, 297 406, 297" />
  </g>
  <g id="1471"  stroke="rgb(0, 0, 0)" stroke-width="1" stroke-dasharray="0,0" >
     <line x1="222" y1="79" x2="318" y2="79" />
     <path fill="none" d="M326, 89 Q326, 79 318, 79" />
  </g>
  <g id="1471"  stroke="rgb(0, 0, 0)" stroke-width="1" stroke-dasharray="0,0" >
     <line x1="326" y1="89" x2="326" y2="168" />
     <line x1="326" y1="168" x2="326" y2="176" />
     <polygon points="322, 172 330, 172 326, 176" />
  </g>
  <g id="1464"  stroke="rgb(0, 0, 0)" stroke-width="1" stroke-dasharray="0,0" >
     <line x1="278" y1="202" x2="278" y2="202" />
     <line x1="278" y1="202" x2="294" y2="202" />
     <polygon points="290, 198 290, 206 294, 202" />
  </g>
  <g id="1464"  stroke="rgb(0, 0, 0)" stroke-width="1" stroke-dasharray="0,0" >
     <line x1="262" y1="147" x2="262" y2="147" />
     <path fill="none" d="M270, 157 Q270, 147 262, 147" />
     <line x1="246" y1="147" x2="262" y2="147" />
  </g>
  <g id="1464"  stroke="rgb(0, 0, 0)" stroke-width="1" stroke-dasharray="0,0" >
     <line x1="270" y1="157" x2="270" y2="192" />
     <path fill="none" d="M270, 192 Q270, 202 278, 202" />
  </g>
  <g id="1452"  stroke="rgb(0, 0, 0)" stroke-width="1" stroke-dasharray="0,0" >
     <line x1="222" y1="79" x2="318" y2="79" />
  </g>
  <g id="1452"  stroke="rgb(0, 0, 0)" stroke-width="1" stroke-dasharray="0,0" >
     <line x1="214" y1="69" x2="214" y2="103" />
     <path fill="none" d="M214, 69 Q214, 79 222, 79" />
     <line x1="214" y1="41" x2="214" y2="69" />
    <text x="214" y="41" font-family="Times New Roman" font-size="11" stroke="black" stroke-width="0" stroke-dasharray="0,0" >C1</text>
  </g>
  <g id="1452"  stroke="rgb(0, 0, 0)" stroke-width="1" stroke-dasharray="0,0" >
     <line x1="214" y1="69" x2="214" y2="103" />
     <line x1="214" y1="103" x2="214" y2="111" />
     <polygon points="210, 107 218, 107 214, 111" />
  </g>
  <g id="1454"  stroke="rgb(0, 0, 0)" stroke-width="1" stroke-dasharray="0,0" >
     <line x1="222" y1="348" x2="449" y2="348" />
     <path fill="none" d="M318, 348 Q326, 348 326, 338" />
     <path fill="none" d="M449, 348 Q457, 348 457, 338" />
  </g>
  <g id="1454"  stroke="rgb(0, 0, 0)" stroke-width="1" stroke-dasharray="0,0" >
     <line x1="457" y1="338" x2="457" y2="338" />
     <line x1="457" y1="330" x2="457" y2="338" />
     <polygon points="453, 334 461, 334 457, 330" />
  </g>
  <g id="1454"  stroke="rgb(0, 0, 0)" stroke-width="1" stroke-dasharray="0,0" >
     <line x1="326" y1="236" x2="326" y2="338" />
     <line x1="326" y1="228" x2="326" y2="236" />
     <polygon points="322, 232 330, 232 326, 228" />
  </g>
  <g id="1454"  stroke="rgb(0, 0, 0)" stroke-width="1" stroke-dasharray="0,0" >
     <line x1="214" y1="168" x2="214" y2="358" />
     <path fill="none" d="M222, 348 Q214, 348 214, 358" />
     <line x1="214" y1="358" x2="214" y2="403" />
    <text x="214" y="420" font-family="Times New Roman" font-size="11" stroke="black" stroke-width="0" stroke-dasharray="0,0" >M1</text>
  </g>
  <g id="1454"  stroke="rgb(0, 0, 0)" stroke-width="1" stroke-dasharray="0,0" >
     <line x1="214" y1="168" x2="214" y2="358" />
     <line x1="214" y1="160" x2="214" y2="168" />
     <polygon points="210, 164 218, 164 214, 160" />
  </g>
  <g id="1462"  stroke="rgb(0, 0, 0)" stroke-width="1" stroke-dasharray="0,0" >
     <line x1="147" y1="246" x2="374" y2="246" />
     <path fill="none" d="M139, 236 Q139, 246 147, 246" />
  </g>
  <g id="1462"  stroke="rgb(0, 0, 0)" stroke-width="1" stroke-dasharray="0,0" >
     <line x1="374" y1="202" x2="374" y2="202" />
     <path fill="none" d="M382, 212 Q382, 202 374, 202" />
     <line x1="358" y1="202" x2="374" y2="202" />
  </g>
  <g id="1462"  stroke="rgb(0, 0, 0)" stroke-width="1" stroke-dasharray="0,0" >
     <line x1="147" y1="147" x2="166" y2="147" />
     <line x1="166" y1="147" x2="182" y2="147" />
     <polygon points="178, 143 178, 151 182, 147" />
  </g>
  <g id="1462"  stroke="rgb(0, 0, 0)" stroke-width="1" stroke-dasharray="0,0" >
     <line x1="382" y1="212" x2="382" y2="236" />
     <path fill="none" d="M374, 246 Q382, 246 382, 236" />
  </g>
  <g id="1462"  stroke="rgb(0, 0, 0)" stroke-width="1" stroke-dasharray="0,0" >
     <line x1="139" y1="157" x2="139" y2="236" />
     <path fill="none" d="M147, 147 Q139, 147 139, 157" />
  </g>
    <text x="543" y="293"  text-anchor = "middle" font-family="Times New Roman"  font-size="11"  fill ="rgb(0, 0, 0)" >Resulting Value</text>
     <line x1="578" y1="289" x2="580" y2="293" />
     <line x1="578" y1="289" x2="578" y2="293" />
     <line x1="578" y1="289" x2="581" y2="297" />
    <text x="410" y="198"  text-anchor = "middle" font-family="Times New Roman"  font-size="11"  fill ="rgb(0, 0, 0)" >Encoded Token</text>
     <line x1="374" y1="194" x2="371" y2="198" />
     <line x1="374" y1="194" x2="373" y2="198" />
     <line x1="374" y1="194" x2="371" y2="202" />
    <text x="100" y="119"  text-anchor = "middle" font-family="Times New Roman"  font-size="11"  fill ="rgb(0, 0, 0)" >Canonical Result AbV</text>
     <line x1="51" y1="115" x2="48" y2="119" />
     <line x1="51" y1="115" x2="50" y2="119" />
     <line x1="51" y1="115" x2="48" y2="123" />
    <text x="295" y="119"  text-anchor = "middle" font-family="Times New Roman"  font-size="11"  fill ="rgb(0, 0, 0)" >Encoded Value</text>
     <line x1="262" y1="115" x2="259" y2="119" />
     <line x1="262" y1="115" x2="261" y2="119" />
     <line x1="262" y1="115" x2="259" y2="123" />
    <text x="302" y="143"  text-anchor = "middle" font-family="Times New Roman"  font-size="11"  fill ="rgb(0, 0, 0)" >Token to Encode</text>
     <line x1="262" y1="139" x2="259" y2="143" />
     <line x1="262" y1="139" x2="261" y2="143" />
     <line x1="262" y1="139" x2="259" y2="147" />
    <text x="361" y="165"  text-anchor = "middle" font-family="Times New Roman"  font-size="11"  fill ="rgb(0, 0, 0)" >CDU Types</text>
     <line x1="334" y1="160" x2="330" y2="163" />
     <line x1="334" y1="160" x2="330" y2="165" />
     <line x1="334" y1="160" x2="326" y2="168" />
    <text x="282" y="55"  text-anchor = "middle" font-family="Times New Roman"  font-size="11"  fill ="rgb(0, 0, 0)" >Encoding Specification (Format 0, CDU)</text>
     <line x1="222" y1="50" x2="218" y2="48" />
     <line x1="222" y1="50" x2="218" y2="50" />
     <line x1="222" y1="50" x2="214" y2="48" />
    <text x="265" y="392"  text-anchor = "middle" font-family="Times New Roman"  font-size="11"  fill ="rgb(0, 0, 0)" >PostgreSQL Server</text>
     <line x1="222" y1="387" x2="218" y2="385" />
     <line x1="222" y1="387" x2="218" y2="387" />
     <line x1="222" y1="387" x2="214" y2="385" />
</svg>
