<?xml version="1.0" encoding="iso-8859-1"?><svg xmlns="http://www.w3.org/2000/svg" xmlns:xlink="http://www.w3.org/1999/xlink" xml:space="preserve" width="714" height="462" id="1305" ><g id="1445" ><a xlink:href="dgm1450.svg"><rect  x="458"  y="275"  width="64" height="52" fill="none" stroke="rgb(0, 0, 0)"  stroke-width="1"  stroke-dasharray="0,0"  /><text x="490" y="292" text-anchor="middle" font-family="Arial, sans-serif" font-size="11" fill="rgb(0, 0, 0)" >Value</text><text x="490" y="306" text-anchor="middle" font-family="Arial, sans-serif" font-size="11" fill="rgb(0, 0, 0)" > Encoder</text><text x="512" y="324" text-anchor="middle" font-family="Arial, sans-serif" font-size="11" fill="rgb(0, 0, 0)" >A3</text><polygon points="522, 283 530, 283 530, 335 522, 335 522, 283" /><polygon points="466, 327 530, 327 522, 335 466, 335 466, 327" /></a></g><g id="1366" ><a xlink:href="dgm1382.svg"><rect  x="346"  y="179"  width="64" height="80" fill="none" stroke="rgb(0, 0, 0)"  stroke-width="1"  stroke-dasharray="0,0"  /><text x="377" y="210" text-anchor="middle" font-family="Arial, sans-serif" font-size="11" fill="rgb(0, 0, 0)" >Function</text><text x="377" y="224" text-anchor="middle" font-family="Arial, sans-serif" font-size="11" fill="rgb(0, 0, 0)" > Processor</text><text x="400" y="256" text-anchor="middle" font-family="Arial, sans-serif" font-size="11" fill="rgb(0, 0, 0)" >A2</text><polygon points="410, 187 418, 187 418, 267 410, 267 410, 187" /><polygon points="354, 259 418, 259 410, 267 354, 267 354, 259" /></a></g><g id="1308" ><a xlink:href="dgm1320.svg"><rect  x="218"  y="111"  width="64" height="52" fill="none" stroke="rgb(0, 0, 0)"  stroke-width="1"  stroke-dasharray="0,0"  /><text x="250" y="128" text-anchor="middle" font-family="Arial, sans-serif" font-size="11" fill="rgb(0, 0, 0)" >Value</text><text x="250" y="142" text-anchor="middle" font-family="Arial, sans-serif" font-size="11" fill="rgb(0, 0, 0)" > Decoder</text><text x="272" y="160" text-anchor="middle" font-family="Arial, sans-serif" font-size="11" fill="rgb(0, 0, 0)" >A1</text><polygon points="282, 119 290, 119 290, 171 282, 171 282, 119" /><polygon points="226, 163 290, 163 282, 171 226, 171 226, 163" /></a></g><g id="1446"  stroke="rgb(0, 0, 0)" stroke-width="1" stroke-dasharray="0,0" ><line x1="538" y1="301" x2="554" y2="301" /><path fill="none" d="M554, 301 Q562, 301 562, 291" /><line x1="530" y1="301" x2="538" y2="301" /></g><g id="1369"  stroke="rgb(0, 0, 0)" stroke-width="1" stroke-dasharray="0,0" ><line x1="426" y1="229" x2="538" y2="229" /><line x1="418" y1="229" x2="426" y2="229" /></g><g id="1370"  stroke="rgb(0, 0, 0)" stroke-width="1" stroke-dasharray="0,0" ><line x1="426" y1="209" x2="538" y2="209" /><line x1="418" y1="209" x2="426" y2="209" /></g><g id="1371"  stroke="rgb(0, 0, 0)" stroke-width="1" stroke-dasharray="0,0" ><line x1="426" y1="189" x2="570" y2="189" /><line x1="418" y1="189" x2="426" y2="189" /></g><g id="1309"  stroke="rgb(0, 0, 0)" stroke-width="1" stroke-dasharray="0,0" ><line x1="167" y1="137" x2="202" y2="137" /><line x1="202" y1="137" x2="218" y2="137" /><polygon points="214, 133 214, 141 218, 137" /></g><g id="1496"  stroke="rgb(0, 0, 0)" stroke-width="1" stroke-dasharray="0,0" ><line x1="426" y1="189" x2="570" y2="189" /></g><g id="1496_1"  stroke="rgb(0, 0, 0)" stroke-width="1" stroke-dasharray="0,0" ><line x1="426" y1="209" x2="538" y2="209" /><path fill="none" d="M538, 209 Q546, 209 546, 199" /></g><g id="1496_2"  stroke="rgb(0, 0, 0)" stroke-width="1" stroke-dasharray="0,0" ><line x1="426" y1="229" x2="538" y2="229" /><path fill="none" d="M538, 229 Q546, 229 546, 219" /></g><g id="1496_3"  stroke="rgb(0, 0, 0)" stroke-width="1" stroke-dasharray="0,0" ><line x1="426" y1="189" x2="570" y2="189" /><line x1="570" y1="189" x2="647" y2="189" /><polygon points="643, 185 643, 193 647, 189" /><text x="651" y="197" font-family="Arial, sans-serif" font-size="11" stroke="black" stroke-width="0" stroke-dasharray="0,0" >O1</text></g><g id="1496_4"  stroke="rgb(0, 0, 0)" stroke-width="1" stroke-dasharray="0,0" ><line x1="562" y1="199" x2="562" y2="291" /><path fill="none" d="M570, 189 Q562, 189 562, 199" /></g><g id="1496_5"  stroke="rgb(0, 0, 0)" stroke-width="1" stroke-dasharray="0,0" ><line x1="546" y1="199" x2="546" y2="219" /><path fill="none" d="M554, 189 Q546, 189 546, 199" /></g><g id="1372"  stroke="rgb(0, 0, 0)" stroke-width="1" stroke-dasharray="0,0" ><line x1="442" y1="301" x2="442" y2="301" /><line x1="442" y1="301" x2="458" y2="301" /><polygon points="454, 297 454, 305 458, 301" /></g><g id="1372_1"  stroke="rgb(0, 0, 0)" stroke-width="1" stroke-dasharray="0,0" ><line x1="426" y1="249" x2="426" y2="249" /><path fill="none" d="M434, 259 Q434, 249 426, 249" /><line x1="418" y1="249" x2="426" y2="249" /></g><g id="1372_2"  stroke="rgb(0, 0, 0)" stroke-width="1" stroke-dasharray="0,0" ><line x1="434" y1="259" x2="434" y2="291" /><path fill="none" d="M434, 291 Q434, 301 442, 301" /></g><g id="1373"  stroke="rgb(0, 0, 0)" stroke-width="1" stroke-dasharray="0,0" ><line x1="362" y1="69" x2="362" y2="171" /><line x1="362" y1="41" x2="362" y2="69" /><text x="362" y="41" font-family="Arial, sans-serif" font-size="11" stroke="black" stroke-width="0" stroke-dasharray="0,0" >C2</text></g><g id="1373_1"  stroke="rgb(0, 0, 0)" stroke-width="1" stroke-dasharray="0,0" ><line x1="362" y1="69" x2="362" y2="171" /><line x1="362" y1="171" x2="362" y2="179" /><polygon points="358, 175 366, 175 362, 179" /></g><g id="1378"  stroke="rgb(0, 0, 0)" stroke-width="1" stroke-dasharray="0,0" ><line x1="394" y1="69" x2="394" y2="171" /><line x1="394" y1="41" x2="394" y2="69" /><text x="394" y="41" font-family="Arial, sans-serif" font-size="11" stroke="black" stroke-width="0" stroke-dasharray="0,0" >I2</text></g><g id="1378_1"  stroke="rgb(0, 0, 0)" stroke-width="1" stroke-dasharray="0,0" ><line x1="394" y1="69" x2="394" y2="171" /><line x1="394" y1="171" x2="394" y2="179" /><polygon points="390, 175 398, 175 394, 179" /></g><g id="1310"  stroke="rgb(0, 0, 0)" stroke-width="1" stroke-dasharray="0,0" ><line x1="330" y1="189" x2="330" y2="189" /><line x1="330" y1="189" x2="346" y2="189" /><polygon points="342, 185 342, 193 346, 189" /></g><g id="1310_1"  stroke="rgb(0, 0, 0)" stroke-width="1" stroke-dasharray="0,0" ><line x1="298" y1="137" x2="314" y2="137" /><path fill="none" d="M322, 147 Q322, 137 314, 137" /><line x1="290" y1="137" x2="298" y2="137" /></g><g id="1310_2"  stroke="rgb(0, 0, 0)" stroke-width="1" stroke-dasharray="0,0" ><line x1="322" y1="147" x2="322" y2="179" /><path fill="none" d="M322, 179 Q322, 189 330, 189" /></g><g id="1368"  stroke="rgb(0, 0, 0)" stroke-width="1" stroke-dasharray="0,0" ><line x1="314" y1="229" x2="330" y2="229" /><line x1="330" y1="229" x2="346" y2="229" /><polygon points="342, 225 342, 233 346, 229" /></g><g id="1368_1"  stroke="rgb(0, 0, 0)" stroke-width="1" stroke-dasharray="0,0" ><line x1="306" y1="219" x2="306" y2="219" /><path fill="none" d="M306, 219 Q306, 229 314, 229" /></g><g id="1311"  stroke="rgb(0, 0, 0)" stroke-width="1" stroke-dasharray="0,0" ><line x1="258" y1="79" x2="482" y2="79" /><path fill="none" d="M490, 89 Q490, 79 482, 79" /></g><g id="1311_1"  stroke="rgb(0, 0, 0)" stroke-width="1" stroke-dasharray="0,0" ><line x1="490" y1="89" x2="490" y2="267" /><line x1="490" y1="267" x2="490" y2="275" /><polygon points="486, 271 494, 271 490, 275" /></g><g id="1311_2"  stroke="rgb(0, 0, 0)" stroke-width="1" stroke-dasharray="0,0" ><line x1="250" y1="69" x2="250" y2="103" /><path fill="none" d="M250, 69 Q250, 79 258, 79" /><line x1="250" y1="41" x2="250" y2="69" /><text x="250" y="41" font-family="Arial, sans-serif" font-size="11" stroke="black" stroke-width="0" stroke-dasharray="0,0" >C1</text></g><g id="1311_3"  stroke="rgb(0, 0, 0)" stroke-width="1" stroke-dasharray="0,0" ><line x1="250" y1="69" x2="250" y2="103" /><line x1="250" y1="103" x2="250" y2="111" /><polygon points="246, 107 254, 107 250, 111" /></g><g id="1312"  stroke="rgb(0, 0, 0)" stroke-width="1" stroke-dasharray="0,0" ><line x1="258" y1="345" x2="482" y2="345" /><path fill="none" d="M354, 345 Q362, 345 362, 335" /><path fill="none" d="M482, 345 Q490, 345 490, 335" /></g><g id="1312_1"  stroke="rgb(0, 0, 0)" stroke-width="1" stroke-dasharray="0,0" ><line x1="490" y1="335" x2="490" y2="335" /><line x1="490" y1="335" x2="490" y2="335" /><polygon points="486, 339 494, 339 490, 335" /></g><g id="1312_2"  stroke="rgb(0, 0, 0)" stroke-width="1" stroke-dasharray="0,0" ><line x1="362" y1="267" x2="362" y2="335" /><line x1="362" y1="267" x2="362" y2="267" /><polygon points="358, 271 366, 271 362, 267" /></g><g id="1312_3"  stroke="rgb(0, 0, 0)" stroke-width="1" stroke-dasharray="0,0" ><line x1="250" y1="171" x2="250" y2="355" /><path fill="none" d="M258, 345 Q250, 345 250, 355" /><line x1="250" y1="355" x2="250" y2="400" /><text x="250" y="417" font-family="Arial, sans-serif" font-size="11" stroke="black" stroke-width="0" stroke-dasharray="0,0" >M1</text></g><g id="1312_4"  stroke="rgb(0, 0, 0)" stroke-width="1" stroke-dasharray="0,0" ><line x1="250" y1="171" x2="250" y2="355" /><line x1="250" y1="171" x2="250" y2="171" /><polygon points="246, 175 254, 175 250, 171" /></g><g id="1495"  stroke="rgb(0, 0, 0)" stroke-width="1" stroke-dasharray="0,0" ><line x1="183" y1="209" x2="330" y2="209" /><path fill="none" d="M306, 219 Q306, 209 298, 209" /><line x1="330" y1="209" x2="346" y2="209" /><polygon points="342, 205 342, 213 346, 209" /></g><g id="1495_1"  stroke="rgb(0, 0, 0)" stroke-width="1" stroke-dasharray="0,0" ><line x1="167" y1="137" x2="202" y2="137" /><line x1="43" y1="137" x2="167" y2="137" /><text x="24" y="145" font-family="Arial, sans-serif" font-size="11" stroke="black" stroke-width="0" stroke-dasharray="0,0" >I1</text></g><g id="1495_2"  stroke="rgb(0, 0, 0)" stroke-width="1" stroke-dasharray="0,0" ><line x1="167" y1="137" x2="202" y2="137" /><path fill="none" d="M175, 147 Q175, 137 167, 137" /></g><g id="1495_3"  stroke="rgb(0, 0, 0)" stroke-width="1" stroke-dasharray="0,0" ><line x1="175" y1="147" x2="175" y2="199" /><path fill="none" d="M175, 199 Q175, 209 183, 209" /></g><text x="580" y="297" text-anchor="middle" font-family="Arial, sans-serif" font-size="11" fill="rgb(0, 0, 0)" >Resulting Value</text><line x1="546" y1="293" x2="542" y2="298" /><line x1="546" y1="293" x2="542" y2="296" /><line x1="546" y1="293" x2="538" y2="301" /><text x="475" y="225" text-anchor="middle" font-family="Arial, sans-serif" font-size="11" fill="rgb(0, 0, 0)" >Resulting BIGINT</text><line x1="434" y1="221" x2="430" y2="226" /><line x1="434" y1="221" x2="430" y2="224" /><line x1="434" y1="221" x2="426" y2="229" /><text x="483" y="205" text-anchor="middle" font-family="Arial, sans-serif" font-size="11" fill="rgb(0, 0, 0)" >Resulting BOOLEAN</text><line x1="434" y1="201" x2="430" y2="206" /><line x1="434" y1="201" x2="430" y2="204" /><line x1="434" y1="201" x2="426" y2="209" /><text x="479" y="185" text-anchor="middle" font-family="Arial, sans-serif" font-size="11" fill="rgb(0, 0, 0)" >Resulting BIGINT[]</text><line x1="434" y1="181" x2="430" y2="186" /><line x1="434" y1="181" x2="430" y2="184" /><line x1="434" y1="181" x2="426" y2="189" /><text x="483" y="245" text-anchor="middle" font-family="Arial, sans-serif" font-size="11" fill="rgb(0, 0, 0)" >Canonical Result AbV</text><line x1="434" y1="241" x2="430" y2="246" /><line x1="434" y1="241" x2="430" y2="244" /><line x1="434" y1="241" x2="426" y2="249" /><text x="296" y="205" text-anchor="middle" font-family="Arial, sans-serif" font-size="11" fill="rgb(0, 0, 0)" >Given BIGINT</text><line x1="330" y1="201" x2="331" y2="205" /><line x1="330" y1="201" x2="329" y2="205" /><line x1="330" y1="201" x2="330" y2="209" /><text x="292" y="225" text-anchor="middle" font-family="Arial, sans-serif" font-size="11" fill="rgb(0, 0, 0)" >Given BIGINT[]</text><line x1="330" y1="221" x2="331" y2="225" /><line x1="330" y1="221" x2="329" y2="225" /><line x1="330" y1="221" x2="330" y2="229" /><text x="599" y="185" text-anchor="middle" font-family="Arial, sans-serif" font-size="11" fill="rgb(0, 0, 0)" >Call Return Value</text><line x1="639" y1="181" x2="641" y2="185" /><line x1="639" y1="181" x2="639" y2="185" /><line x1="639" y1="181" x2="642" y2="189" /><text x="336" y="133" text-anchor="middle" font-family="Arial, sans-serif" font-size="11" fill="rgb(0, 0, 0)" >Given as AbV</text><line x1="306" y1="129" x2="302" y2="134" /><line x1="306" y1="129" x2="302" y2="132" /><line x1="306" y1="129" x2="298" y2="137" /><text x="91" y="133" text-anchor="middle" font-family="Arial, sans-serif" font-size="11" fill="rgb(0, 0, 0)" >Call Parameter(s)</text><line x1="51" y1="129" x2="48" y2="133" /><line x1="51" y1="129" x2="50" y2="133" /><line x1="51" y1="129" x2="48" y2="137" /><text x="175" y="133" text-anchor="middle" font-family="Arial, sans-serif" font-size="11" fill="rgb(0, 0, 0)" >Given Value</text><line x1="202" y1="129" x2="203" y2="133" /><line x1="202" y1="129" x2="201" y2="133" /><line x1="202" y1="129" x2="202" y2="137" /><text x="430" y="55" text-anchor="middle" font-family="Arial, sans-serif" font-size="11" fill="rgb(0, 0, 0)" >Formal SSK Type Definition</text><line x1="370" y1="50" x2="366" y2="48" /><line x1="370" y1="50" x2="366" y2="50" /><line x1="370" y1="50" x2="362" y2="48" /><text x="458" y="72" text-anchor="middle" font-family="Arial, sans-serif" font-size="11" fill="rgb(0, 0, 0)" >Extension Function Call</text><line x1="402" y1="67" x2="398" y2="65" /><line x1="402" y1="67" x2="398" y2="67" /><line x1="402" y1="67" x2="394" y2="65" /><text x="318" y="73" text-anchor="middle" font-family="Arial, sans-serif" font-size="11" fill="rgb(0, 0, 0)" >Encoding Specification (Format 0, CDU)</text><line x1="258" y1="68" x2="254" y2="66" /><line x1="258" y1="68" x2="254" y2="68" /><line x1="258" y1="68" x2="250" y2="66" /><text x="301" y="389" text-anchor="middle" font-family="Arial, sans-serif" font-size="11" fill="rgb(0, 0, 0)" >PostgreSQL Server</text><line x1="258" y1="384" x2="254" y2="382" /><line x1="258" y1="384" x2="254" y2="384" /><line x1="258" y1="384" x2="250" y2="382" /></svg>
