<?xml version="1.0" encoding="iso-8859-1"?>
<svg xmlns="http://www.w3.org/2000/svg" xmlns:xlink="http://www.w3.org/1999/xlink" xml:space="preserve" width="1438" height="876" id="455" >
  <rect x="0" y="0" width="1438" height="876" fill="white"/>
  <g id="586" >
    <rect  x="1085"  y="655"  width="66" height="66" fill="none" stroke="rgb(0, 0, 0)"  stroke-width="1"  stroke-dasharray="0,0"  />
    <text x="1118" y="672"  text-anchor = "middle" font-family="Times New Roman"  font-size="11"  fill ="rgb(0, 0, 0)" >Vitalisation:</text>
    <text x="1118" y="686"  text-anchor = "middle" font-family="Times New Roman"  font-size="11"  fill ="rgb(0, 0, 0)" > Expanding</text>
    <text x="1118" y="700"  text-anchor = "middle" font-family="Times New Roman"  font-size="11"  fill ="rgb(0, 0, 0)" > Horizons</text>
    <text x="1141" y="718"  text-anchor = "middle" font-family="Times New Roman"  font-size="11"  fill ="rgb(0, 0, 0)" >A5</text>
  </g>
  <g id="573" >
    <rect  x="949"  y="539"  width="72" height="80" fill="none" stroke="rgb(0, 0, 0)"  stroke-width="1"  stroke-dasharray="0,0"  />
    <text x="985" y="556"  text-anchor = "middle" font-family="Times New Roman"  font-size="11"  fill ="rgb(0, 0, 0)" >Expansion:</text>
    <text x="985" y="570"  text-anchor = "middle" font-family="Times New Roman"  font-size="11"  fill ="rgb(0, 0, 0)" > Preserving</text>
    <text x="985" y="584"  text-anchor = "middle" font-family="Times New Roman"  font-size="11"  fill ="rgb(0, 0, 0)" > Semantics</text>
    <text x="985" y="598"  text-anchor = "middle" font-family="Times New Roman"  font-size="11"  fill ="rgb(0, 0, 0)" > at BIGINT</text>
    <text x="985" y="612"  text-anchor = "middle" font-family="Times New Roman"  font-size="11"  fill ="rgb(0, 0, 0)" > Scale</text>
    <text x="1011" y="616"  text-anchor = "middle" font-family="Times New Roman"  font-size="11"  fill ="rgb(0, 0, 0)" >A4</text>
  </g>
  <g id="560" >
    <rect  x="783"  y="403"  width="86" height="80" fill="none" stroke="rgb(0, 0, 0)"  stroke-width="1"  stroke-dasharray="0,0"  />
    <text x="825" y="434"  text-anchor = "middle" font-family="Times New Roman"  font-size="11"  fill ="rgb(0, 0, 0)" >Implementation:</text>
    <text x="825" y="448"  text-anchor = "middle" font-family="Times New Roman"  font-size="11"  fill ="rgb(0, 0, 0)" > Rubber hits</text>
    <text x="825" y="462"  text-anchor = "middle" font-family="Times New Roman"  font-size="11"  fill ="rgb(0, 0, 0)" > Road</text>
    <text x="859" y="480"  text-anchor = "middle" font-family="Times New Roman"  font-size="11"  fill ="rgb(0, 0, 0)" >A3</text>
  </g>
  <g id="535" >
    <rect  x="641"  y="267"  width="78" height="100" fill="none" stroke="rgb(0, 0, 0)"  stroke-width="1"  stroke-dasharray="0,0"  />
    <text x="679" y="301"  text-anchor = "middle" font-family="Times New Roman"  font-size="11"  fill ="rgb(0, 0, 0)" >Exposition:</text>
    <text x="679" y="315"  text-anchor = "middle" font-family="Times New Roman"  font-size="11"  fill ="rgb(0, 0, 0)" > Only</text>
    <text x="679" y="329"  text-anchor = "middle" font-family="Times New Roman"  font-size="11"  fill ="rgb(0, 0, 0)" > Value</text>
    <text x="679" y="343"  text-anchor = "middle" font-family="Times New Roman"  font-size="11"  fill ="rgb(0, 0, 0)" > Matters</text>
    <text x="709" y="364"  text-anchor = "middle" font-family="Times New Roman"  font-size="11"  fill ="rgb(0, 0, 0)" >A2</text>
  </g>
  <g id="490" >
    <rect  x="468"  y="111"  width="93" height="120" fill="none" stroke="rgb(0, 0, 0)"  stroke-width="1"  stroke-dasharray="0,0"  />
    <text x="514" y="162"  text-anchor = "middle" font-family="Times New Roman"  font-size="11"  fill ="rgb(0, 0, 0)" >Formulation: The</text>
    <text x="514" y="176"  text-anchor = "middle" font-family="Times New Roman"  font-size="11"  fill ="rgb(0, 0, 0)" > Bijection Affair</text>
    <text x="551" y="228"  text-anchor = "middle" font-family="Times New Roman"  font-size="11"  fill ="rgb(0, 0, 0)" >A1</text>
  </g>
  <g id="582"  stroke="rgb(0, 0, 0)" stroke-width="1" stroke-dasharray="0,0" >
     <line x1="1037" y1="549" x2="1167" y2="549" />
     <line x1="1021" y1="549" x2="1037" y2="549" />
  </g>
  <g id="578"  stroke="rgb(0, 0, 0)" stroke-width="1" stroke-dasharray="0,0" >
     <line x1="433" y1="609" x2="933" y2="609" />
     <line x1="933" y1="609" x2="949" y2="609" />
     <polygon points="945, 605 945, 613 949, 609" />
  </g>
  <g id="548"  stroke="rgb(0, 0, 0)" stroke-width="1" stroke-dasharray="0,0" >
     <line x1="735" y1="277" x2="1167" y2="277" />
     <line x1="719" y1="277" x2="735" y2="277" />
  </g>
  <g id="456"  stroke="rgb(0, 0, 0)" stroke-width="1" stroke-dasharray="0,0" >
     <line x1="369" y1="121" x2="452" y2="121" />
     <line x1="43" y1="121" x2="369" y2="121" />
    <text x="24" y="129" font-family="Times New Roman" font-size="11" stroke="black" stroke-width="0" stroke-dasharray="0,0" >I1</text>
  </g>
  <g id="456.1"  stroke="rgb(0, 0, 0)" stroke-width="1" stroke-dasharray="0,0" >
     <line x1="369" y1="121" x2="452" y2="121" />
     <line x1="452" y1="121" x2="468" y2="121" />
     <polygon points="464, 117 464, 125 468, 121" />
  </g>
  <g id="472"  stroke="rgb(0, 0, 0)" stroke-width="1" stroke-dasharray="0,0" >
     <line x1="577" y1="121" x2="1215" y2="121" />
     <line x1="561" y1="121" x2="577" y2="121" />
  </g>
  <g id="472.1"  stroke="rgb(0, 0, 0)" stroke-width="1" stroke-dasharray="0,0" >
     <line x1="577" y1="121" x2="1215" y2="121" />
     <line x1="1215" y1="121" x2="1371" y2="121" />
     <polygon points="1367, 117 1367, 125 1371, 121" />
    <text x="1375" y="129" font-family="Times New Roman" font-size="11" stroke="black" stroke-width="0" stroke-dasharray="0,0" >O2</text>
  </g>
  <g id="507"  stroke="rgb(0, 0, 0)" stroke-width="1" stroke-dasharray="0,0" >
     <line x1="433" y1="201" x2="452" y2="201" />
     <line x1="452" y1="201" x2="468" y2="201" />
     <polygon points="464, 197 464, 205 468, 201" />
  </g>
  <g id="476"  stroke="rgb(0, 0, 0)" stroke-width="1" stroke-dasharray="0,0" >
     <line x1="1037" y1="569" x2="1183" y2="569" />
     <path fill="none" d="M1183, 569 Q1191, 569 1191, 559" />
     <line x1="1021" y1="569" x2="1037" y2="569" />
  </g>
  <g id="476.1"  stroke="rgb(0, 0, 0)" stroke-width="1" stroke-dasharray="0,0" >
     <line x1="885" y1="413" x2="1183" y2="413" />
     <path fill="none" d="M1183, 413 Q1191, 413 1191, 403" />
     <line x1="869" y1="413" x2="885" y2="413" />
  </g>
  <g id="476.2"  stroke="rgb(0, 0, 0)" stroke-width="1" stroke-dasharray="0,0" >
     <line x1="735" y1="297" x2="1215" y2="297" />
     <line x1="719" y1="297" x2="735" y2="297" />
  </g>
  <g id="476.3"  stroke="rgb(0, 0, 0)" stroke-width="1" stroke-dasharray="0,0" >
     <line x1="735" y1="297" x2="1215" y2="297" />
     <line x1="1215" y1="297" x2="1371" y2="297" />
     <polygon points="1367, 293 1367, 301 1371, 297" />
    <text x="1375" y="305" font-family="Times New Roman" font-size="11" stroke="black" stroke-width="0" stroke-dasharray="0,0" >O3</text>
  </g>
  <g id="476.4"  stroke="rgb(0, 0, 0)" stroke-width="1" stroke-dasharray="0,0" >
     <line x1="1191" y1="307" x2="1191" y2="559" />
     <path fill="none" d="M1199, 297 Q1191, 297 1191, 307" />
  </g>
  <g id="515"  stroke="rgb(0, 0, 0)" stroke-width="1" stroke-dasharray="0,0" >
     <line x1="577" y1="141" x2="1110" y2="141" />
     <line x1="561" y1="141" x2="577" y2="141" />
  </g>
  <g id="515.1"  stroke="rgb(0, 0, 0)" stroke-width="1" stroke-dasharray="0,0" >
     <line x1="577" y1="141" x2="1110" y2="141" />
     <path fill="none" d="M1118, 151 Q1118, 141 1110, 141" />
  </g>
  <g id="515.2"  stroke="rgb(0, 0, 0)" stroke-width="1" stroke-dasharray="0,0" >
     <line x1="1118" y1="151" x2="1118" y2="647" />
     <line x1="1118" y1="647" x2="1118" y2="655" />
     <polygon points="1114, 651 1122, 651 1118, 655" />
  </g>
  <g id="519"  stroke="rgb(0, 0, 0)" stroke-width="1" stroke-dasharray="0,0" >
     <line x1="1069" y1="688" x2="1069" y2="688" />
     <line x1="1069" y1="688" x2="1085" y2="688" />
     <polygon points="1081, 684 1081, 692 1085, 688" />
  </g>
  <g id="519.1"  stroke="rgb(0, 0, 0)" stroke-width="1" stroke-dasharray="0,0" >
     <line x1="1037" y1="589" x2="1053" y2="589" />
     <path fill="none" d="M1061, 599 Q1061, 589 1053, 589" />
     <line x1="1021" y1="589" x2="1037" y2="589" />
  </g>
  <g id="519.2"  stroke="rgb(0, 0, 0)" stroke-width="1" stroke-dasharray="0,0" >
     <line x1="885" y1="433" x2="1053" y2="433" />
     <path fill="none" d="M1061, 443 Q1061, 433 1053, 433" />
     <line x1="869" y1="433" x2="885" y2="433" />
  </g>
  <g id="519.3"  stroke="rgb(0, 0, 0)" stroke-width="1" stroke-dasharray="0,0" >
     <line x1="735" y1="317" x2="1053" y2="317" />
     <path fill="none" d="M1061, 327 Q1061, 317 1053, 317" />
     <line x1="719" y1="317" x2="735" y2="317" />
  </g>
  <g id="519.4"  stroke="rgb(0, 0, 0)" stroke-width="1" stroke-dasharray="0,0" >
     <line x1="577" y1="161" x2="1053" y2="161" />
     <path fill="none" d="M1061, 171 Q1061, 161 1053, 161" />
     <line x1="561" y1="161" x2="577" y2="161" />
  </g>
  <g id="519.5"  stroke="rgb(0, 0, 0)" stroke-width="1" stroke-dasharray="0,0" >
     <line x1="1061" y1="151" x2="1061" y2="678" />
  </g>
  <g id="519.6"  stroke="rgb(0, 0, 0)" stroke-width="1" stroke-dasharray="0,0" >
     <line x1="1061" y1="151" x2="1061" y2="678" />
     <path fill="none" d="M1061, 678 Q1061, 688 1069, 688" />
  </g>
  <g id="569"  stroke="rgb(0, 0, 0)" stroke-width="1" stroke-dasharray="0,0" >
     <line x1="917" y1="569" x2="933" y2="569" />
     <line x1="933" y1="569" x2="949" y2="569" />
     <polygon points="945, 565 945, 573 949, 569" />
  </g>
  <g id="569.1"  stroke="rgb(0, 0, 0)" stroke-width="1" stroke-dasharray="0,0" >
     <line x1="885" y1="453" x2="1167" y2="453" />
     <path fill="none" d="M909, 463 Q909, 453 901, 453" />
     <line x1="869" y1="453" x2="885" y2="453" />
  </g>
  <g id="569.2"  stroke="rgb(0, 0, 0)" stroke-width="1" stroke-dasharray="0,0" >
     <line x1="909" y1="463" x2="909" y2="559" />
     <path fill="none" d="M909, 559 Q909, 569 917, 569" />
  </g>
  <g id="565"  stroke="rgb(0, 0, 0)" stroke-width="1" stroke-dasharray="0,0" >
     <line x1="993" y1="521" x2="1001" y2="521" />
     <path fill="none" d="M1009, 531 Q1009, 521 1001, 521" />
  </g>
  <g id="565.1"  stroke="rgb(0, 0, 0)" stroke-width="1" stroke-dasharray="0,0" >
     <line x1="1009" y1="531" x2="1009" y2="531" />
     <line x1="1009" y1="531" x2="1009" y2="539" />
     <polygon points="1005, 535 1013, 535 1009, 539" />
  </g>
  <g id="565.2"  stroke="rgb(0, 0, 0)" stroke-width="1" stroke-dasharray="0,0" >
     <line x1="847" y1="89" x2="847" y2="395" />
     <line x1="847" y1="395" x2="847" y2="403" />
     <polygon points="843, 399 851, 399 847, 403" />
  </g>
  <g id="552"  stroke="rgb(0, 0, 0)" stroke-width="1" stroke-dasharray="0,0" >
     <line x1="933" y1="549" x2="933" y2="549" />
     <line x1="933" y1="549" x2="949" y2="549" />
     <polygon points="945, 545 945, 553 949, 549" />
  </g>
  <g id="552.1"  stroke="rgb(0, 0, 0)" stroke-width="1" stroke-dasharray="0,0" >
     <line x1="767" y1="413" x2="767" y2="413" />
     <line x1="767" y1="413" x2="783" y2="413" />
     <polygon points="779, 409 779, 417 783, 413" />
  </g>
  <g id="552.2"  stroke="rgb(0, 0, 0)" stroke-width="1" stroke-dasharray="0,0" >
     <line x1="735" y1="337" x2="917" y2="337" />
     <path fill="none" d="M759, 347 Q759, 337 751, 337" />
     <line x1="719" y1="337" x2="735" y2="337" />
  </g>
  <g id="552.3"  stroke="rgb(0, 0, 0)" stroke-width="1" stroke-dasharray="0,0" >
     <line x1="735" y1="337" x2="917" y2="337" />
     <path fill="none" d="M925, 347 Q925, 337 917, 337" />
  </g>
  <g id="552.4"  stroke="rgb(0, 0, 0)" stroke-width="1" stroke-dasharray="0,0" >
     <line x1="925" y1="347" x2="925" y2="539" />
     <path fill="none" d="M925, 539 Q925, 549 933, 549" />
  </g>
  <g id="552.5"  stroke="rgb(0, 0, 0)" stroke-width="1" stroke-dasharray="0,0" >
     <line x1="759" y1="347" x2="759" y2="403" />
     <path fill="none" d="M759, 403 Q759, 413 767, 413" />
  </g>
  <g id="544"  stroke="rgb(0, 0, 0)" stroke-width="1" stroke-dasharray="0,0" >
     <line x1="680" y1="89" x2="680" y2="259" />
     <line x1="680" y1="259" x2="680" y2="267" />
     <polygon points="676, 263 684, 263 680, 267" />
  </g>
  <g id="556"  stroke="rgb(0, 0, 0)" stroke-width="1" stroke-dasharray="0,0" >
     <line x1="961" y1="627" x2="961" y2="729" />
     <line x1="961" y1="619" x2="961" y2="627" />
     <polygon points="957, 623 965, 623 961, 619" />
  </g>
  <g id="556.1"  stroke="rgb(0, 0, 0)" stroke-width="1" stroke-dasharray="0,0" >
     <line x1="804" y1="491" x2="804" y2="729" />
     <line x1="804" y1="483" x2="804" y2="491" />
     <polygon points="800, 487 808, 487 804, 483" />
  </g>
  <g id="556.2"  stroke="rgb(0, 0, 0)" stroke-width="1" stroke-dasharray="0,0" >
     <line x1="680" y1="375" x2="680" y2="729" />
     <line x1="680" y1="367" x2="680" y2="375" />
     <polygon points="676, 371 684, 371 680, 367" />
  </g>
  <g id="523"  stroke="rgb(0, 0, 0)" stroke-width="1" stroke-dasharray="0,0" >
     <line x1="609" y1="277" x2="625" y2="277" />
     <line x1="625" y1="277" x2="641" y2="277" />
     <polygon points="637, 273 637, 281 641, 277" />
  </g>
  <g id="523.1"  stroke="rgb(0, 0, 0)" stroke-width="1" stroke-dasharray="0,0" >
     <line x1="577" y1="181" x2="953" y2="181" />
     <path fill="none" d="M601, 191 Q601, 181 593, 181" />
     <path fill="none" d="M617, 191 Q617, 181 609, 181" />
     <line x1="561" y1="181" x2="577" y2="181" />
  </g>
  <g id="523.2"  stroke="rgb(0, 0, 0)" stroke-width="1" stroke-dasharray="0,0" >
     <line x1="577" y1="181" x2="953" y2="181" />
     <path fill="none" d="M804, 191 Q804, 181 796, 181" />
     <path fill="none" d="M961, 191 Q961, 181 953, 181" />
  </g>
  <g id="523.3"  stroke="rgb(0, 0, 0)" stroke-width="1" stroke-dasharray="0,0" >
     <line x1="961" y1="191" x2="961" y2="531" />
     <line x1="961" y1="531" x2="961" y2="539" />
     <polygon points="957, 535 965, 535 961, 539" />
  </g>
  <g id="523.4"  stroke="rgb(0, 0, 0)" stroke-width="1" stroke-dasharray="0,0" >
     <line x1="804" y1="191" x2="804" y2="395" />
     <line x1="804" y1="395" x2="804" y2="403" />
     <polygon points="800, 399 808, 399 804, 403" />
  </g>
  <g id="523.5"  stroke="rgb(0, 0, 0)" stroke-width="1" stroke-dasharray="0,0" >
     <line x1="601" y1="191" x2="601" y2="267" />
     <path fill="none" d="M601, 267 Q601, 277 609, 277" />
  </g>
  <g id="540"  stroke="rgb(0, 0, 0)" stroke-width="1" stroke-dasharray="0,0" >
     <line x1="593" y1="637" x2="1037" y2="637" />
     <path fill="none" d="M585, 627 Q585, 637 593, 637" />
  </g>
  <g id="540.1"  stroke="rgb(0, 0, 0)" stroke-width="1" stroke-dasharray="0,0" >
     <line x1="1037" y1="609" x2="1037" y2="609" />
     <path fill="none" d="M1045, 619 Q1045, 609 1037, 609" />
     <line x1="1021" y1="609" x2="1037" y2="609" />
  </g>
  <g id="540.2"  stroke="rgb(0, 0, 0)" stroke-width="1" stroke-dasharray="0,0" >
     <line x1="593" y1="501" x2="885" y2="501" />
     <path fill="none" d="M585, 491 Q585, 501 593, 501" />
  </g>
  <g id="540.3"  stroke="rgb(0, 0, 0)" stroke-width="1" stroke-dasharray="0,0" >
     <line x1="885" y1="473" x2="885" y2="473" />
     <path fill="none" d="M893, 483 Q893, 473 885, 473" />
     <line x1="869" y1="473" x2="885" y2="473" />
  </g>
  <g id="540.4"  stroke="rgb(0, 0, 0)" stroke-width="1" stroke-dasharray="0,0" >
     <line x1="593" y1="297" x2="625" y2="297" />
     <line x1="625" y1="297" x2="641" y2="297" />
     <polygon points="637, 293 637, 301 641, 297" />
  </g>
  <g id="540.5"  stroke="rgb(0, 0, 0)" stroke-width="1" stroke-dasharray="0,0" >
     <line x1="1045" y1="619" x2="1045" y2="627" />
     <path fill="none" d="M1037, 637 Q1045, 637 1045, 627" />
  </g>
  <g id="540.6"  stroke="rgb(0, 0, 0)" stroke-width="1" stroke-dasharray="0,0" >
     <line x1="893" y1="483" x2="893" y2="491" />
     <path fill="none" d="M885, 501 Q893, 501 893, 491" />
  </g>
  <g id="540.7"  stroke="rgb(0, 0, 0)" stroke-width="1" stroke-dasharray="0,0" >
     <line x1="585" y1="307" x2="585" y2="627" />
  </g>
  <g id="540.8"  stroke="rgb(0, 0, 0)" stroke-width="1" stroke-dasharray="0,0" >
     <line x1="585" y1="307" x2="585" y2="627" />
     <path fill="none" d="M593, 297 Q585, 297 585, 307" />
  </g>
  <g id="468"  stroke="rgb(0, 0, 0)" stroke-width="1" stroke-dasharray="0,0" >
     <line x1="1037" y1="549" x2="1167" y2="549" />
     <path fill="none" d="M1167, 549 Q1175, 549 1175, 539" />
  </g>
  <g id="468.1"  stroke="rgb(0, 0, 0)" stroke-width="1" stroke-dasharray="0,0" >
     <line x1="885" y1="453" x2="1167" y2="453" />
     <path fill="none" d="M1167, 453 Q1175, 453 1175, 443" />
  </g>
  <g id="468.2"  stroke="rgb(0, 0, 0)" stroke-width="1" stroke-dasharray="0,0" >
     <line x1="735" y1="277" x2="1167" y2="277" />
     <path fill="none" d="M1167, 277 Q1175, 277 1175, 267" />
  </g>
  <g id="468.3"  stroke="rgb(0, 0, 0)" stroke-width="1" stroke-dasharray="0,0" >
     <line x1="625" y1="201" x2="1215" y2="201" />
  </g>
  <g id="468.4"  stroke="rgb(0, 0, 0)" stroke-width="1" stroke-dasharray="0,0" >
     <line x1="625" y1="201" x2="1215" y2="201" />
     <line x1="1215" y1="201" x2="1371" y2="201" />
     <polygon points="1367, 197 1367, 205 1371, 201" />
    <text x="1375" y="209" font-family="Times New Roman" font-size="11" stroke="black" stroke-width="0" stroke-dasharray="0,0" >O1</text>
  </g>
  <g id="468.5"  stroke="rgb(0, 0, 0)" stroke-width="1" stroke-dasharray="0,0" >
     <line x1="1175" y1="211" x2="1175" y2="579" />
     <path fill="none" d="M1183, 201 Q1175, 201 1175, 211" />
  </g>
  <g id="468.6"  stroke="rgb(0, 0, 0)" stroke-width="1" stroke-dasharray="0,0" >
     <line x1="617" y1="191" x2="617" y2="191" />
     <path fill="none" d="M617, 191 Q617, 201 625, 201" />
  </g>
  <g id="464"  stroke="rgb(0, 0, 0)" stroke-width="1" stroke-dasharray="0,0" >
     <line x1="499" y1="79" x2="977" y2="79" />
     <path fill="none" d="M985, 89 Q985, 79 977, 79" />
     <path fill="none" d="M680, 89 Q680, 79 672, 79" />
     <path fill="none" d="M847, 89 Q847, 79 839, 79" />
  </g>
  <g id="464.1"  stroke="rgb(0, 0, 0)" stroke-width="1" stroke-dasharray="0,0" >
     <line x1="985" y1="89" x2="985" y2="531" />
     <path fill="none" d="M985, 511 Q985, 521 993, 521" />
     <line x1="985" y1="531" x2="985" y2="539" />
     <polygon points="981, 535 989, 535 985, 539" />
  </g>
  <g id="464.2"  stroke="rgb(0, 0, 0)" stroke-width="1" stroke-dasharray="0,0" >
     <line x1="491" y1="69" x2="491" y2="103" />
     <line x1="491" y1="41" x2="491" y2="69" />
    <text x="491" y="41" font-family="Times New Roman" font-size="11" stroke="black" stroke-width="0" stroke-dasharray="0,0" >C1</text>
  </g>
  <g id="464.3"  stroke="rgb(0, 0, 0)" stroke-width="1" stroke-dasharray="0,0" >
     <line x1="491" y1="69" x2="491" y2="103" />
     <path fill="none" d="M491, 69 Q491, 79 499, 79" />
  </g>
  <g id="511"  stroke="rgb(0, 0, 0)" stroke-width="1" stroke-dasharray="0,0" >
     <line x1="491" y1="69" x2="491" y2="103" />
     <line x1="491" y1="103" x2="491" y2="111" />
     <polygon points="487, 107 495, 107 491, 111" />
  </g>
  <g id="484"  stroke="rgb(0, 0, 0)" stroke-width="1" stroke-dasharray="0,0" >
     <line x1="499" y1="739" x2="953" y2="739" />
     <path fill="none" d="M672, 739 Q680, 739 680, 729" />
     <path fill="none" d="M796, 739 Q804, 739 804, 729" />
     <path fill="none" d="M953, 739 Q961, 739 961, 729" />
  </g>
  <g id="484.1"  stroke="rgb(0, 0, 0)" stroke-width="1" stroke-dasharray="0,0" >
     <line x1="491" y1="239" x2="491" y2="769" />
     <line x1="491" y1="769" x2="491" y2="814" />
    <text x="491" y="831" font-family="Times New Roman" font-size="11" stroke="black" stroke-width="0" stroke-dasharray="0,0" >M2</text>
  </g>
  <g id="484.2"  stroke="rgb(0, 0, 0)" stroke-width="1" stroke-dasharray="0,0" >
     <line x1="491" y1="239" x2="491" y2="769" />
     <path fill="none" d="M499, 739 Q491, 739 491, 749" />
  </g>
  <g id="484.3"  stroke="rgb(0, 0, 0)" stroke-width="1" stroke-dasharray="0,0" >
     <line x1="491" y1="239" x2="491" y2="769" />
     <path fill="none" d="M499, 249 Q491, 249 491, 259" />
     <line x1="491" y1="231" x2="491" y2="239" />
     <polygon points="487, 235 495, 235 491, 231" />
  </g>
  <g id="531"  stroke="rgb(0, 0, 0)" stroke-width="1" stroke-dasharray="0,0" >
     <line x1="499" y1="249" x2="529" y2="249" />
     <path fill="none" d="M529, 249 Q537, 249 537, 239" />
  </g>
  <g id="531.1"  stroke="rgb(0, 0, 0)" stroke-width="1" stroke-dasharray="0,0" >
     <line x1="537" y1="239" x2="537" y2="239" />
     <line x1="537" y1="231" x2="537" y2="239" />
     <polygon points="533, 235 541, 235 537, 231" />
  </g>
  <g id="460"  stroke="rgb(0, 0, 0)" stroke-width="1" stroke-dasharray="0,0" >
     <line x1="401" y1="589" x2="933" y2="589" />
     <line x1="933" y1="589" x2="949" y2="589" />
     <polygon points="945, 585 945, 593 949, 589" />
  </g>
  <g id="460.1"  stroke="rgb(0, 0, 0)" stroke-width="1" stroke-dasharray="0,0" >
     <line x1="369" y1="221" x2="452" y2="221" />
     <path fill="none" d="M393, 231 Q393, 221 385, 221" />
     <line x1="43" y1="221" x2="369" y2="221" />
    <text x="24" y="229" font-family="Times New Roman" font-size="11" stroke="black" stroke-width="0" stroke-dasharray="0,0" >I2</text>
  </g>
  <g id="460.2"  stroke="rgb(0, 0, 0)" stroke-width="1" stroke-dasharray="0,0" >
     <line x1="369" y1="221" x2="452" y2="221" />
     <line x1="452" y1="221" x2="468" y2="221" />
     <polygon points="464, 217 464, 225 468, 221" />
  </g>
  <g id="460.3"  stroke="rgb(0, 0, 0)" stroke-width="1" stroke-dasharray="0,0" >
     <line x1="393" y1="231" x2="393" y2="579" />
     <path fill="none" d="M393, 579 Q393, 589 401, 589" />
  </g>
  <g id="495"  stroke="rgb(0, 0, 0)" stroke-width="1" stroke-dasharray="0,0" >
     <line x1="385" y1="759" x2="1199" y2="759" />
     <path fill="none" d="M377, 749 Q377, 759 385, 759" />
  </g>
  <g id="495.1"  stroke="rgb(0, 0, 0)" stroke-width="1" stroke-dasharray="0,0" >
     <line x1="1167" y1="688" x2="1199" y2="688" />
     <path fill="none" d="M1207, 698 Q1207, 688 1199, 688" />
     <line x1="1151" y1="688" x2="1167" y2="688" />
  </g>
  <g id="495.2"  stroke="rgb(0, 0, 0)" stroke-width="1" stroke-dasharray="0,0" >
     <line x1="385" y1="141" x2="452" y2="141" />
     <line x1="452" y1="141" x2="468" y2="141" />
     <polygon points="464, 137 464, 145 468, 141" />
  </g>
  <g id="495.3"  stroke="rgb(0, 0, 0)" stroke-width="1" stroke-dasharray="0,0" >
     <line x1="1207" y1="698" x2="1207" y2="749" />
     <path fill="none" d="M1199, 759 Q1207, 759 1207, 749" />
  </g>
  <g id="495.4"  stroke="rgb(0, 0, 0)" stroke-width="1" stroke-dasharray="0,0" >
     <line x1="377" y1="151" x2="377" y2="749" />
     <path fill="none" d="M385, 141 Q377, 141 377, 151" />
  </g>
  <g id="499"  stroke="rgb(0, 0, 0)" stroke-width="1" stroke-dasharray="0,0" >
     <line x1="417" y1="385" x2="735" y2="385" />
     <path fill="none" d="M409, 375 Q409, 385 417, 385" />
  </g>
  <g id="499.1"  stroke="rgb(0, 0, 0)" stroke-width="1" stroke-dasharray="0,0" >
     <line x1="735" y1="357" x2="735" y2="357" />
     <path fill="none" d="M743, 367 Q743, 357 735, 357" />
     <line x1="719" y1="357" x2="735" y2="357" />
  </g>
  <g id="499.2"  stroke="rgb(0, 0, 0)" stroke-width="1" stroke-dasharray="0,0" >
     <line x1="417" y1="161" x2="452" y2="161" />
     <line x1="452" y1="161" x2="468" y2="161" />
     <polygon points="464, 157 464, 165 468, 161" />
  </g>
  <g id="499.3"  stroke="rgb(0, 0, 0)" stroke-width="1" stroke-dasharray="0,0" >
     <line x1="743" y1="367" x2="743" y2="375" />
     <path fill="none" d="M735, 385 Q743, 385 743, 375" />
  </g>
  <g id="499.4"  stroke="rgb(0, 0, 0)" stroke-width="1" stroke-dasharray="0,0" >
     <line x1="409" y1="171" x2="409" y2="375" />
     <path fill="none" d="M417, 161 Q409, 161 409, 171" />
  </g>
  <g id="480"  stroke="rgb(0, 0, 0)" stroke-width="1" stroke-dasharray="0,0" >
     <line x1="369" y1="181" x2="452" y2="181" />
     <line x1="43" y1="181" x2="369" y2="181" />
    <text x="24" y="189" font-family="Times New Roman" font-size="11" stroke="black" stroke-width="0" stroke-dasharray="0,0" >M1</text>
  </g>
  <g id="480.1"  stroke="rgb(0, 0, 0)" stroke-width="1" stroke-dasharray="0,0" >
     <line x1="369" y1="181" x2="452" y2="181" />
     <path fill="none" d="M425, 191 Q425, 181 417, 181" />
  </g>
  <g id="480.2"  stroke="rgb(0, 0, 0)" stroke-width="1" stroke-dasharray="0,0" >
     <line x1="369" y1="181" x2="452" y2="181" />
     <path fill="none" d="M425, 191 Q425, 181 417, 181" />
     <line x1="452" y1="181" x2="468" y2="181" />
     <polygon points="464, 177 464, 185 468, 181" />
  </g>
  <g id="480.3"  stroke="rgb(0, 0, 0)" stroke-width="1" stroke-dasharray="0,0" >
     <line x1="425" y1="191" x2="425" y2="599" />
     <path fill="none" d="M425, 191 Q425, 201 433, 201" />
     <path fill="none" d="M425, 599 Q425, 609 433, 609" />
  </g>
    <text x="1227" y="684"  text-anchor = "middle" font-family="Times New Roman"  font-size="11"  fill ="rgb(0, 0, 0)" >Changes Enabling Opportunities</text>
    <path d="M 1167,680 L 1164,684 L 1166,684 L 1164,688" fill="none" stroke="rgb(0, 0, 0)" stroke-width="1.5" stroke-dasharray="0,0" stroke-linecap="round" stroke-linejoin="round" />
    <text x="1069" y="585"  text-anchor = "middle" font-family="Times New Roman"  font-size="11"  fill ="rgb(0, 0, 0)" >Opportunities</text>
    <path d="M 1037,581 L 1034,585 L 1036,585 L 1034,589" fill="none" stroke="rgb(0, 0, 0)" stroke-width="1.5" stroke-dasharray="0,0" stroke-linecap="round" stroke-linejoin="round" />
    <text x="1078" y="605"  text-anchor = "middle" font-family="Times New Roman"  font-size="11"  fill ="rgb(0, 0, 0)" >Calculated Results</text>
    <path d="M 1037,601 L 1034,605 L 1036,605 L 1034,609" fill="none" stroke="rgb(0, 0, 0)" stroke-width="1.5" stroke-dasharray="0,0" stroke-linecap="round" stroke-linejoin="round" />
    <text x="1091" y="545"  text-anchor = "middle" font-family="Times New Roman"  font-size="11"  fill ="rgb(0, 0, 0)" >SSK for Target Domain</text>
    <path d="M 1037,541 L 1034,545 L 1036,545 L 1034,549" fill="none" stroke="rgb(0, 0, 0)" stroke-width="1.5" stroke-dasharray="0,0" stroke-linecap="round" stroke-linejoin="round" />
    <text x="877" y="605"  text-anchor = "middle" font-family="Times New Roman"  font-size="11"  fill ="rgb(0, 0, 0)" >McCaffrey: combinadics</text>
    <path d="M 933,601 L 934,605 L 932,605 L 933,609" fill="none" stroke="rgb(0, 0, 0)" stroke-width="1.5" stroke-dasharray="0,0" stroke-linecap="round" stroke-linejoin="round" />
    <text x="917" y="429"  text-anchor = "middle" font-family="Times New Roman"  font-size="11"  fill ="rgb(0, 0, 0)" >Opportunities</text>
    <path d="M 885,425 L 882,429 L 884,429 L 882,433" fill="none" stroke="rgb(0, 0, 0)" stroke-width="1.5" stroke-dasharray="0,0" stroke-linecap="round" stroke-linejoin="round" />
    <text x="926" y="469"  text-anchor = "middle" font-family="Times New Roman"  font-size="11"  fill ="rgb(0, 0, 0)" >Calculated Results</text>
    <path d="M 885,465 L 882,469 L 884,469 L 882,473" fill="none" stroke="rgb(0, 0, 0)" stroke-width="1.5" stroke-dasharray="0,0" stroke-linecap="round" stroke-linejoin="round" />
    <text x="940" y="449"  text-anchor = "middle" font-family="Times New Roman"  font-size="11"  fill ="rgb(0, 0, 0)" >SSK for Trivial Domain</text>
    <path d="M 885,445 L 882,449 L 884,449 L 882,453" fill="none" stroke="rgb(0, 0, 0)" stroke-width="1.5" stroke-dasharray="0,0" stroke-linecap="round" stroke-linejoin="round" />
    <text x="773" y="353"  text-anchor = "middle" font-family="Times New Roman"  font-size="11"  fill ="rgb(0, 0, 0)" >Definition Issues</text>
    <path d="M 735,349 L 732,353 L 734,353 L 732,357" fill="none" stroke="rgb(0, 0, 0)" stroke-width="1.5" stroke-dasharray="0,0" stroke-linecap="round" stroke-linejoin="round" />
    <text x="767" y="313"  text-anchor = "middle" font-family="Times New Roman"  font-size="11"  fill ="rgb(0, 0, 0)" >Opportunities</text>
    <path d="M 735,309 L 732,313 L 734,313 L 732,317" fill="none" stroke="rgb(0, 0, 0)" stroke-width="1.5" stroke-dasharray="0,0" stroke-linecap="round" stroke-linejoin="round" />
    <text x="759" y="273"  text-anchor = "middle" font-family="Times New Roman"  font-size="11"  fill ="rgb(0, 0, 0)" >User Guide</text>
    <path d="M 735,269 L 732,273 L 734,273 L 732,277" fill="none" stroke="rgb(0, 0, 0)" stroke-width="1.5" stroke-dasharray="0,0" stroke-linecap="round" stroke-linejoin="round" />
    <text x="795" y="333"  text-anchor = "middle" font-family="Times New Roman"  font-size="11"  fill ="rgb(0, 0, 0)" >Audited Expected Test Results</text>
    <path d="M 735,329 L 732,333 L 734,333 L 732,337" fill="none" stroke="rgb(0, 0, 0)" stroke-width="1.5" stroke-dasharray="0,0" stroke-linecap="round" stroke-linejoin="round" />
    <text x="1317" y="293"  text-anchor = "middle" font-family="Times New Roman"  font-size="11"  fill ="rgb(0, 0, 0)" >Proven Correctness</text>
    <path d="M 1363,289 L 1365,293 L 1363,293 L 1366,297" fill="none" stroke="rgb(0, 0, 0)" stroke-width="1.5" stroke-dasharray="0,0" stroke-linecap="round" stroke-linejoin="round" />
    <text x="111" y="117"  text-anchor = "middle" font-family="Times New Roman"  font-size="11"  fill ="rgb(0, 0, 0)" >Limitations of Database Technology</text>
    <path d="M 51,113 L 48,117 L 50,117 L 48,121" fill="none" stroke="rgb(0, 0, 0)" stroke-width="1.5" stroke-dasharray="0,0" stroke-linecap="round" stroke-linejoin="round" />
    <text x="111" y="217"  text-anchor = "middle" font-family="Times New Roman"  font-size="11"  fill ="rgb(0, 0, 0)" >Structure of Data Imposed by Databases</text>
    <path d="M 51,213 L 48,217 L 50,217 L 48,221" fill="none" stroke="rgb(0, 0, 0)" stroke-width="1.5" stroke-dasharray="0,0" stroke-linecap="round" stroke-linejoin="round" />
    <text x="111" y="177"  text-anchor = "middle" font-family="Times New Roman"  font-size="11"  fill ="rgb(0, 0, 0)" >Prior Art in Mathematics, Scients and Technology</text>
    <path d="M 51,173 L 48,177 L 50,177 L 48,181" fill="none" stroke="rgb(0, 0, 0)" stroke-width="1.5" stroke-dasharray="0,0" stroke-linecap="round" stroke-linejoin="round" />
    <text x="609" y="137"  text-anchor = "middle" font-family="Times New Roman"  font-size="11"  fill ="rgb(0, 0, 0)" >Project Ethos</text>
    <path d="M 577,133 L 574,137 L 576,137 L 574,141" fill="none" stroke="rgb(0, 0, 0)" stroke-width="1.5" stroke-dasharray="0,0" stroke-linecap="round" stroke-linejoin="round" />
    <text x="609" y="157"  text-anchor = "middle" font-family="Times New Roman"  font-size="11"  fill ="rgb(0, 0, 0)" >Opportunities</text>
    <path d="M 577,153 L 574,157 L 576,157 L 574,161" fill="none" stroke="rgb(0, 0, 0)" stroke-width="1.5" stroke-dasharray="0,0" stroke-linecap="round" stroke-linejoin="round" />
    <text x="637" y="177"  text-anchor = "middle" font-family="Times New Roman"  font-size="11"  fill ="rgb(0, 0, 0)" >Formal SSK Type Definition</text>
    <path d="M 577,173 L 574,177 L 576,177 L 574,181" fill="none" stroke="rgb(0, 0, 0)" stroke-width="1.5" stroke-dasharray="0,0" stroke-linecap="round" stroke-linejoin="round" />
    <text x="1319" y="117"  text-anchor = "middle" font-family="Times New Roman"  font-size="11"  fill ="rgb(0, 0, 0)" >SQL Compatibility</text>
    <path d="M 1363,113 L 1365,117 L 1363,117 L 1366,121" fill="none" stroke="rgb(0, 0, 0)" stroke-width="1.5" stroke-dasharray="0,0" stroke-linecap="round" stroke-linejoin="round" />
    <text x="1305" y="197"  text-anchor = "middle" font-family="Times New Roman"  font-size="11"  fill ="rgb(0, 0, 0)" >Functional SSK Bijection</text>
    <path d="M 1363,193 L 1365,197 L 1363,197 L 1366,201" fill="none" stroke="rgb(0, 0, 0)" stroke-width="1.5" stroke-dasharray="0,0" stroke-linecap="round" stroke-linejoin="round" />
    <text x="399" y="177"  text-anchor = "middle" font-family="Times New Roman"  font-size="11"  fill ="rgb(0, 0, 0)" >Knuth: set + bit vector</text>
    <path d="M 452,173 L 453,177 L 451,177 L 452,181" fill="none" stroke="rgb(0, 0, 0)" stroke-width="1.5" stroke-dasharray="0,0" stroke-linecap="round" stroke-linejoin="round" />
    <text x="408" y="197"  text-anchor = "middle" font-family="Times New Roman"  font-size="11"  fill ="rgb(0, 0, 0)" >Bourbaki: bijection</text>
    <path d="M 452,193 L 453,197 L 451,197 L 452,201" fill="none" stroke="rgb(0, 0, 0)" stroke-width="1.5" stroke-dasharray="0,0" stroke-linecap="round" stroke-linejoin="round" />
    <text x="1053" y="516"  text-anchor = "middle" font-family="Times New Roman"  font-size="11"  fill ="rgb(0, 0, 0)" >Target Domain: BIGINT DBID</text>
    <path d="M 993,511 L 990,521 L 988,521 L 985,531" fill="none" stroke="rgb(0, 0, 0)" stroke-width="1.5" stroke-dasharray="0,0" stroke-linecap="round" stroke-linejoin="round" />
    <text x="909" y="634"  text-anchor = "middle" font-family="Times New Roman"  font-size="11"  fill ="rgb(0, 0, 0)" >PostgreSQL Server</text>
    <path d="M 953,629 L 957,627 L 957,629 L 961,627" fill="none" stroke="rgb(0, 0, 0)" stroke-width="1.5" stroke-dasharray="0,0" stroke-linecap="round" stroke-linejoin="round" />
    <text x="1061" y="492"  text-anchor = "middle" font-family="Times New Roman"  font-size="11"  fill ="rgb(0, 0, 0)" >Scalar Requirement</text>
    <path d="M 1017,487 L 1014,509 L 1012,509 L 1009,531" fill="none" stroke="rgb(0, 0, 0)" stroke-width="1.5" stroke-dasharray="0,0" stroke-linecap="round" stroke-linejoin="round" />
    <text x="752" y="498"  text-anchor = "middle" font-family="Times New Roman"  font-size="11"  fill ="rgb(0, 0, 0)" >PostgreSQL Server</text>
    <path d="M 796,493 L 800,491 L 800,493 L 804,491" fill="none" stroke="rgb(0, 0, 0)" stroke-width="1.5" stroke-dasharray="0,0" stroke-linecap="round" stroke-linejoin="round" />
    <text x="899" y="400"  text-anchor = "middle" font-family="Times New Roman"  font-size="11"  fill ="rgb(0, 0, 0)" >Scalar Requirement</text>
    <path d="M 855,395 L 851,394 L 851,396 L 847,395" fill="none" stroke="rgb(0, 0, 0)" stroke-width="1.5" stroke-dasharray="0,0" stroke-linecap="round" stroke-linejoin="round" />
    <text x="731" y="256"  text-anchor = "middle" font-family="Times New Roman"  font-size="11"  fill ="rgb(0, 0, 0)" >Example Problems</text>
    <path d="M 688,251 L 684,254 L 684,256 L 680,259" fill="none" stroke="rgb(0, 0, 0)" stroke-width="1.5" stroke-dasharray="0,0" stroke-linecap="round" stroke-linejoin="round" />
    <text x="628" y="382"  text-anchor = "middle" font-family="Times New Roman"  font-size="11"  fill ="rgb(0, 0, 0)" >PostgreSQL Server</text>
    <path d="M 672,377 L 676,375 L 676,377 L 680,375" fill="none" stroke="rgb(0, 0, 0)" stroke-width="1.5" stroke-dasharray="0,0" stroke-linecap="round" stroke-linejoin="round" />
    <text x="559" y="55"  text-anchor = "middle" font-family="Times New Roman"  font-size="11"  fill ="rgb(0, 0, 0)" >Original M:N OLTP Requirement</text>
    <path d="M 499,50 L 495,48 L 495,50 L 491,48" fill="none" stroke="rgb(0, 0, 0)" stroke-width="1.5" stroke-dasharray="0,0" stroke-linecap="round" stroke-linejoin="round" />
    <text x="559" y="803"  text-anchor = "middle" font-family="Times New Roman"  font-size="11"  fill ="rgb(0, 0, 0)" >Modern Computing and Database Platform</text>
    <path d="M 499,798 L 495,796 L 495,798 L 491,796" fill="none" stroke="rgb(0, 0, 0)" stroke-width="1.5" stroke-dasharray="0,0" stroke-linecap="round" stroke-linejoin="round" />
    <text x="559" y="100"  text-anchor = "middle" font-family="Times New Roman"  font-size="11"  fill ="rgb(0, 0, 0)" >Target Domain: BIGINT DBID</text>
    <path d="M 499,95 L 495,98 L 495,100 L 491,103" fill="none" stroke="rgb(0, 0, 0)" stroke-width="1.5" stroke-dasharray="0,0" stroke-linecap="round" stroke-linejoin="round" />
    <text x="407" y="246"  text-anchor = "middle" font-family="Times New Roman"  font-size="11"  fill ="rgb(0, 0, 0)" >64-bit Processor Architecture</text>
    <path d="M 467,241 L 479,239 L 479,241 L 491,239" fill="none" stroke="rgb(0, 0, 0)" stroke-width="1.5" stroke-dasharray="0,0" stroke-linecap="round" stroke-linejoin="round" />
    <text x="468" y="265"  text-anchor = "middle" font-family="Times New Roman"  font-size="11"  fill ="rgb(0, 0, 0)" >PostgresSQL Extensibility</text>
    <path d="M 528,255 L 533,247 L 531,247 L 537,239" fill="none" stroke="rgb(0, 0, 0)" stroke-width="1.5" stroke-dasharray="0,0" stroke-linecap="round" stroke-linejoin="round" />
</svg>
