<?xml version="1.0" encoding="iso-8859-1"?>
<svg xmlns="http://www.w3.org/2000/svg" xmlns:xlink="http://www.w3.org/1999/xlink" xml:space="preserve" width="527" height="323" id="406" >
  <rect x="0" y="0" width="527" height="323" fill="white"/>
  <g id="410" >
  <a href="Decomposition of SSK Concerns.svg">
    <rect  x="250"  y="108"  width="71" height="66" fill="none" stroke="rgb(0, 0, 0)"  stroke-width="1"  stroke-dasharray="0,0"  />
    <text x="285" y="125"  text-anchor = "middle" font-family="Times New Roman"  font-size="11"  fill ="rgb(0, 0, 0)" >Subset</text>
    <text x="285" y="139"  text-anchor = "middle" font-family="Times New Roman"  font-size="11"  fill ="rgb(0, 0, 0)" > Identity</text>
    <text x="285" y="153"  text-anchor = "middle" font-family="Times New Roman"  font-size="11"  fill ="rgb(0, 0, 0)" > from Zero</text>
    <text x="285" y="167"  text-anchor = "middle" font-family="Times New Roman"  font-size="11"  fill ="rgb(0, 0, 0)" > to Hero</text>
    <text x="311" y="171"  text-anchor = "middle" font-family="Times New Roman"  font-size="11"  fill ="rgb(0, 0, 0)" >A0</text>
     <polygon points="321, 116 329, 116 329, 182 321, 182 321, 116" />
     <polygon points="258, 174 329, 174 321, 182 258, 182 258, 174" />
  </a>
  </g>
  <g id="415"  stroke="rgb(0, 0, 0)" stroke-width="1" stroke-dasharray="0,0" >
     <line x1="215" y1="119" x2="234" y2="119" />
     <line x1="43" y1="119" x2="215" y2="119" />
  </g>
  <g id="415.1"  stroke="rgb(0, 0, 0)" stroke-width="1" stroke-dasharray="0,0" >
     <line x1="215" y1="119" x2="234" y2="119" />
     <line x1="234" y1="119" x2="250" y2="119" />
     <polygon points="246, 115 246, 123 250, 119" />
  </g>
  <g id="419"  stroke="rgb(0, 0, 0)" stroke-width="1" stroke-dasharray="0,0" >
     <line x1="215" y1="141" x2="234" y2="141" />
     <line x1="43" y1="141" x2="215" y2="141" />
  </g>
  <g id="419.1"  stroke="rgb(0, 0, 0)" stroke-width="1" stroke-dasharray="0,0" >
     <line x1="215" y1="141" x2="234" y2="141" />
     <line x1="234" y1="141" x2="250" y2="141" />
     <polygon points="246, 137 246, 145 250, 141" />
  </g>
  <g id="427"  stroke="rgb(0, 0, 0)" stroke-width="1" stroke-dasharray="0,0" >
     <line x1="337" y1="119" x2="337" y2="119" />
     <line x1="329" y1="119" x2="337" y2="119" />
  </g>
  <g id="427.1"  stroke="rgb(0, 0, 0)" stroke-width="1" stroke-dasharray="0,0" >
     <line x1="337" y1="119" x2="337" y2="119" />
     <line x1="337" y1="119" x2="460" y2="119" />
     <polygon points="456, 115 456, 123 460, 119" />
  </g>
  <g id="431"  stroke="rgb(0, 0, 0)" stroke-width="1" stroke-dasharray="0,0" >
     <line x1="337" y1="141" x2="337" y2="141" />
     <line x1="329" y1="141" x2="337" y2="141" />
  </g>
  <g id="431.1"  stroke="rgb(0, 0, 0)" stroke-width="1" stroke-dasharray="0,0" >
     <line x1="337" y1="141" x2="337" y2="141" />
     <line x1="337" y1="141" x2="460" y2="141" />
     <polygon points="456, 137 456, 145 460, 141" />
  </g>
  <g id="435"  stroke="rgb(0, 0, 0)" stroke-width="1" stroke-dasharray="0,0" >
     <line x1="337" y1="163" x2="337" y2="163" />
     <line x1="329" y1="163" x2="337" y2="163" />
  </g>
  <g id="435.1"  stroke="rgb(0, 0, 0)" stroke-width="1" stroke-dasharray="0,0" >
     <line x1="337" y1="163" x2="337" y2="163" />
     <line x1="337" y1="163" x2="460" y2="163" />
     <polygon points="456, 159 456, 167 460, 163" />
  </g>
  <g id="423"  stroke="rgb(0, 0, 0)" stroke-width="1" stroke-dasharray="0,0" >
     <line x1="267" y1="86" x2="267" y2="100" />
     <line x1="267" y1="41" x2="267" y2="86" />
  </g>
  <g id="423.1"  stroke="rgb(0, 0, 0)" stroke-width="1" stroke-dasharray="0,0" >
     <line x1="267" y1="86" x2="267" y2="100" />
     <line x1="267" y1="100" x2="267" y2="108" />
     <polygon points="263, 104 271, 104 267, 108" />
  </g>
  <g id="439"  stroke="rgb(0, 0, 0)" stroke-width="1" stroke-dasharray="0,0" >
     <line x1="267" y1="182" x2="267" y2="182" />
     <line x1="267" y1="182" x2="267" y2="261" />
  </g>
  <g id="439.1"  stroke="rgb(0, 0, 0)" stroke-width="1" stroke-dasharray="0,0" >
     <line x1="267" y1="182" x2="267" y2="182" />
     <line x1="267" y1="182" x2="267" y2="182" />
     <polygon points="263, 186 271, 186 267, 182" />
  </g>
  <g id="443"  stroke="rgb(0, 0, 0)" stroke-width="1" stroke-dasharray="0,0" >
     <line x1="302" y1="182" x2="302" y2="182" />
     <line x1="302" y1="182" x2="302" y2="261" />
  </g>
  <g id="443.1"  stroke="rgb(0, 0, 0)" stroke-width="1" stroke-dasharray="0,0" >
     <line x1="302" y1="182" x2="302" y2="182" />
     <line x1="302" y1="182" x2="302" y2="182" />
     <polygon points="298, 186 306, 186 302, 182" />
  </g>
    <text x="111" y="115"  text-anchor = "middle" font-family="Times New Roman"  font-size="11"  fill ="rgb(0, 0, 0)" >Limitations of Database Technology</text>
    <path d="M 51,111 L 48,115 L 50,115 L 48,119" fill="none" stroke="rgb(0, 0, 0)" stroke-width="1.5" stroke-dasharray="0,0" stroke-linecap="round" stroke-linejoin="round" />
    <text x="111" y="137"  text-anchor = "middle" font-family="Times New Roman"  font-size="11"  fill ="rgb(0, 0, 0)" >Structure of Data Imposed by Databases</text>
    <path d="M 51,133 L 48,137 L 50,137 L 48,141" fill="none" stroke="rgb(0, 0, 0)" stroke-width="1.5" stroke-dasharray="0,0" stroke-linecap="round" stroke-linejoin="round" />
    <text x="394" y="115"  text-anchor = "middle" font-family="Times New Roman"  font-size="11"  fill ="rgb(0, 0, 0)" >Functional SSK Bijection</text>
    <path d="M 452,111 L 454,115 L 452,115 L 455,119" fill="none" stroke="rgb(0, 0, 0)" stroke-width="1.5" stroke-dasharray="0,0" stroke-linecap="round" stroke-linejoin="round" />
    <text x="408" y="137"  text-anchor = "middle" font-family="Times New Roman"  font-size="11"  fill ="rgb(0, 0, 0)" >SQL Compatibility</text>
    <path d="M 452,133 L 454,137 L 452,137 L 455,141" fill="none" stroke="rgb(0, 0, 0)" stroke-width="1.5" stroke-dasharray="0,0" stroke-linecap="round" stroke-linejoin="round" />
    <text x="406" y="159"  text-anchor = "middle" font-family="Times New Roman"  font-size="11"  fill ="rgb(0, 0, 0)" >Proven Correctness</text>
    <path d="M 452,155 L 454,159 L 452,159 L 455,163" fill="none" stroke="rgb(0, 0, 0)" stroke-width="1.5" stroke-dasharray="0,0" stroke-linecap="round" stroke-linejoin="round" />
    <text x="335" y="55"  text-anchor = "middle" font-family="Times New Roman"  font-size="11"  fill ="rgb(0, 0, 0)" >Original M:N OLTP Requirement</text>
    <path d="M 275,50 L 271,48 L 271,50 L 267,48" fill="none" stroke="rgb(0, 0, 0)" stroke-width="1.5" stroke-dasharray="0,0" stroke-linecap="round" stroke-linejoin="round" />
    <text x="335" y="250"  text-anchor = "middle" font-family="Times New Roman"  font-size="11"  fill ="rgb(0, 0, 0)" >Prior Art in Mathematics, Scients and Technology</text>
    <path d="M 275,245 L 271,243 L 271,245 L 267,243" fill="none" stroke="rgb(0, 0, 0)" stroke-width="1.5" stroke-dasharray="0,0" stroke-linecap="round" stroke-linejoin="round" />
    <text x="370" y="232"  text-anchor = "middle" font-family="Times New Roman"  font-size="11"  fill ="rgb(0, 0, 0)" >Modern Computing and Database Platform</text>
    <path d="M 310,227 L 306,225 L 306,227 L 302,225" fill="none" stroke="rgb(0, 0, 0)" stroke-width="1.5" stroke-dasharray="0,0" stroke-linecap="round" stroke-linejoin="round" />
</svg>
