<?xml version="1.0" encoding="iso-8859-1"?><svg xmlns="http://www.w3.org/2000/svg" xmlns:xlink="http://www.w3.org/1999/xlink" xml:space="preserve" width="413" height="309" id="824" ><g id="1302" ><a href="dgm1305.svg"><rect  x="179"  y="125"  width="64" height="52" fill="none" stroke="rgb(0, 0, 0)"  stroke-width="1"  stroke-dasharray="0,0"  /><text x="210" y="142" text-anchor="middle" font-family="Arial, sans-serif" font-size="11" fill="rgb(0, 0, 0)" >The SSK</text><text x="210" y="156" text-anchor="middle" font-family="Arial, sans-serif" font-size="11" fill="rgb(0, 0, 0)" > Extension</text><text x="233" y="174" text-anchor="middle" font-family="Arial, sans-serif" font-size="11" fill="rgb(0, 0, 0)" >A0</text><polygon points="243, 133 251, 133 251, 185 243, 185 243, 133" /><polygon points="187, 177 251, 177 243, 185 187, 185 187, 177" /></a></g><g id="1054"  stroke="rgb(0, 0, 0)" stroke-width="1" stroke-dasharray="0,0" ><line x1="144" y1="164" x2="163" y2="164" /><line x1="43" y1="164" x2="144" y2="164" /></g><g id="1054_1"  stroke="rgb(0, 0, 0)" stroke-width="1" stroke-dasharray="0,0" ><line x1="144" y1="164" x2="163" y2="164" /><line x1="163" y1="164" x2="179" y2="164" /><polygon points="175, 160 175, 168 179, 164" /></g><g id="1057"  stroke="rgb(0, 0, 0)" stroke-width="1" stroke-dasharray="0,0" ><line x1="259" y1="138" x2="259" y2="138" /><line x1="251" y1="138" x2="259" y2="138" /></g><g id="1057_1"  stroke="rgb(0, 0, 0)" stroke-width="1" stroke-dasharray="0,0" ><line x1="259" y1="138" x2="259" y2="138" /><line x1="259" y1="138" x2="346" y2="138" /><polygon points="342, 134 342, 142 346, 138" /></g><g id="1060"  stroke="rgb(0, 0, 0)" stroke-width="1" stroke-dasharray="0,0" ><line x1="144" y1="138" x2="163" y2="138" /><line x1="43" y1="138" x2="144" y2="138" /></g><g id="1060_1"  stroke="rgb(0, 0, 0)" stroke-width="1" stroke-dasharray="0,0" ><line x1="144" y1="138" x2="163" y2="138" /><line x1="163" y1="138" x2="179" y2="138" /><polygon points="175, 134 175, 142 179, 138" /></g><g id="1062"  stroke="rgb(0, 0, 0)" stroke-width="1" stroke-dasharray="0,0" ><line x1="227" y1="103" x2="227" y2="117" /><line x1="227" y1="41" x2="227" y2="103" /></g><g id="1062_1"  stroke="rgb(0, 0, 0)" stroke-width="1" stroke-dasharray="0,0" ><line x1="227" y1="103" x2="227" y2="117" /><line x1="227" y1="117" x2="227" y2="125" /><polygon points="223, 121 231, 121 227, 125" /></g><g id="1072"  stroke="rgb(0, 0, 0)" stroke-width="1" stroke-dasharray="0,0" ><line x1="195" y1="185" x2="195" y2="185" /><line x1="195" y1="185" x2="195" y2="247" /></g><g id="1072_1"  stroke="rgb(0, 0, 0)" stroke-width="1" stroke-dasharray="0,0" ><line x1="195" y1="185" x2="195" y2="185" /><line x1="195" y1="185" x2="195" y2="185" /><polygon points="191, 189 199, 189 195, 185" /></g><g id="1183"  stroke="rgb(0, 0, 0)" stroke-width="1" stroke-dasharray="0,0" ><line x1="195" y1="103" x2="195" y2="117" /><line x1="195" y1="41" x2="195" y2="103" /></g><g id="1183_1"  stroke="rgb(0, 0, 0)" stroke-width="1" stroke-dasharray="0,0" ><line x1="195" y1="103" x2="195" y2="117" /><line x1="195" y1="117" x2="195" y2="125" /><polygon points="191, 121 199, 121 195, 125" /></g><text x="107" y="160" text-anchor="middle" font-family="Arial, sans-serif" font-size="11" fill="rgb(0, 0, 0)" >Extension Function Call</text><line x1="51" y1="156" x2="48" y2="160" /><line x1="51" y1="156" x2="50" y2="160" /><line x1="51" y1="156" x2="48" y2="164" /><text x="91" y="134" text-anchor="middle" font-family="Arial, sans-serif" font-size="11" fill="rgb(0, 0, 0)" >Call Parameter(s)</text><line x1="51" y1="130" x2="48" y2="134" /><line x1="51" y1="130" x2="50" y2="134" /><line x1="51" y1="130" x2="48" y2="138" /><text x="298" y="134" text-anchor="middle" font-family="Arial, sans-serif" font-size="11" fill="rgb(0, 0, 0)" >Call Return Value</text><line x1="338" y1="130" x2="340" y2="134" /><line x1="338" y1="130" x2="338" y2="134" /><line x1="338" y1="130" x2="341" y2="138" /><text x="295" y="72" text-anchor="middle" font-family="Arial, sans-serif" font-size="11" fill="rgb(0, 0, 0)" >Formal SSK Type Definition</text><line x1="235" y1="67" x2="231" y2="65" /><line x1="235" y1="67" x2="231" y2="67" /><line x1="235" y1="67" x2="227" y2="65" /><text x="246" y="236" text-anchor="middle" font-family="Arial, sans-serif" font-size="11" fill="rgb(0, 0, 0)" >PostgreSQL Server</text><line x1="203" y1="231" x2="199" y2="229" /><line x1="203" y1="231" x2="199" y2="231" /><line x1="203" y1="231" x2="195" y2="229" /><text x="263" y="55" text-anchor="middle" font-family="Arial, sans-serif" font-size="11" fill="rgb(0, 0, 0)" >Encoding Specification (Format 0, CDU)</text><line x1="203" y1="50" x2="199" y2="48" /><line x1="203" y1="50" x2="199" y2="50" /><line x1="203" y1="50" x2="195" y2="48" /></svg>
