<?xml version="1.0" encoding="iso-8859-1"?><svg xmlns="http://www.w3.org/2000/svg" xmlns:xlink="http://www.w3.org/1999/xlink" xml:space="preserve" width="527" height="323" id="24" ><g id="328" ><a xlink:href="Decomposition of SSK Concerns.svg"><rect  x="250"  y="108"  width="71" height="66" fill="none" stroke="rgb(0, 0, 0)"  stroke-width="1"  stroke-dasharray="0,0"  /><text x="285" y="125" text-anchor="middle" font-family="Arial, sans-serif" font-size="11" fill="rgb(0, 0, 0)" >Subset</text><text x="285" y="139" text-anchor="middle" font-family="Arial, sans-serif" font-size="11" fill="rgb(0, 0, 0)" > Identity</text><text x="285" y="153" text-anchor="middle" font-family="Arial, sans-serif" font-size="11" fill="rgb(0, 0, 0)" > from Zero</text><text x="285" y="167" text-anchor="middle" font-family="Arial, sans-serif" font-size="11" fill="rgb(0, 0, 0)" > to Hero</text><text x="311" y="171" text-anchor="middle" font-family="Arial, sans-serif" font-size="11" fill="rgb(0, 0, 0)" >A0</text><polygon points="321, 116 329, 116 329, 182 321, 182 321, 116" /><polygon points="258, 174 329, 174 321, 182 258, 182 258, 174" /></a></g><g id="437"  stroke="rgb(0, 0, 0)" stroke-width="1" stroke-dasharray="0,0" ><line x1="337" y1="119" x2="337" y2="119" /><line x1="329" y1="119" x2="337" y2="119" /></g><g id="437_1"  stroke="rgb(0, 0, 0)" stroke-width="1" stroke-dasharray="0,0" ><line x1="337" y1="119" x2="337" y2="119" /><line x1="337" y1="119" x2="460" y2="119" /><polygon points="456, 115 456, 123 460, 119" /></g><g id="440"  stroke="rgb(0, 0, 0)" stroke-width="1" stroke-dasharray="0,0" ><line x1="337" y1="141" x2="337" y2="141" /><line x1="329" y1="141" x2="337" y2="141" /></g><g id="440_1"  stroke="rgb(0, 0, 0)" stroke-width="1" stroke-dasharray="0,0" ><line x1="337" y1="141" x2="337" y2="141" /><line x1="337" y1="141" x2="460" y2="141" /><polygon points="456, 137 456, 145 460, 141" /></g><g id="455"  stroke="rgb(0, 0, 0)" stroke-width="1" stroke-dasharray="0,0" ><line x1="215" y1="119" x2="234" y2="119" /><line x1="43" y1="119" x2="215" y2="119" /></g><g id="455_1"  stroke="rgb(0, 0, 0)" stroke-width="1" stroke-dasharray="0,0" ><line x1="215" y1="119" x2="234" y2="119" /><line x1="234" y1="119" x2="250" y2="119" /><polygon points="246, 115 246, 123 250, 119" /></g><g id="458"  stroke="rgb(0, 0, 0)" stroke-width="1" stroke-dasharray="0,0" ><line x1="215" y1="141" x2="234" y2="141" /><line x1="43" y1="141" x2="215" y2="141" /></g><g id="458_1"  stroke="rgb(0, 0, 0)" stroke-width="1" stroke-dasharray="0,0" ><line x1="215" y1="141" x2="234" y2="141" /><line x1="234" y1="141" x2="250" y2="141" /><polygon points="246, 137 246, 145 250, 141" /></g><g id="517"  stroke="rgb(0, 0, 0)" stroke-width="1" stroke-dasharray="0,0" ><line x1="337" y1="163" x2="337" y2="163" /><line x1="329" y1="163" x2="337" y2="163" /></g><g id="517_1"  stroke="rgb(0, 0, 0)" stroke-width="1" stroke-dasharray="0,0" ><line x1="337" y1="163" x2="337" y2="163" /><line x1="337" y1="163" x2="460" y2="163" /><polygon points="456, 159 456, 167 460, 163" /></g><g id="446"  stroke="rgb(0, 0, 0)" stroke-width="1" stroke-dasharray="0,0" ><line x1="267" y1="86" x2="267" y2="100" /><line x1="267" y1="41" x2="267" y2="86" /></g><g id="446_1"  stroke="rgb(0, 0, 0)" stroke-width="1" stroke-dasharray="0,0" ><line x1="267" y1="86" x2="267" y2="100" /><line x1="267" y1="100" x2="267" y2="108" /><polygon points="263, 104 271, 104 267, 108" /></g><g id="449"  stroke="rgb(0, 0, 0)" stroke-width="1" stroke-dasharray="0,0" ><line x1="267" y1="182" x2="267" y2="182" /><line x1="267" y1="182" x2="267" y2="261" /></g><g id="449_1"  stroke="rgb(0, 0, 0)" stroke-width="1" stroke-dasharray="0,0" ><line x1="267" y1="182" x2="267" y2="182" /><line x1="267" y1="182" x2="267" y2="182" /><polygon points="263, 186 271, 186 267, 182" /></g><g id="452"  stroke="rgb(0, 0, 0)" stroke-width="1" stroke-dasharray="0,0" ><line x1="302" y1="182" x2="302" y2="182" /><line x1="302" y1="182" x2="302" y2="261" /></g><g id="452_1"  stroke="rgb(0, 0, 0)" stroke-width="1" stroke-dasharray="0,0" ><line x1="302" y1="182" x2="302" y2="182" /><line x1="302" y1="182" x2="302" y2="182" /><polygon points="298, 186 306, 186 302, 182" /></g><text x="111" y="115" text-anchor="middle" font-family="Arial, sans-serif" font-size="11" fill="rgb(0, 0, 0)" >Limitations of Database Technology</text><line x1="51" y1="111" x2="48" y2="115" /><line x1="51" y1="111" x2="50" y2="115" /><line x1="51" y1="111" x2="48" y2="119" /><text x="111" y="137" text-anchor="middle" font-family="Arial, sans-serif" font-size="11" fill="rgb(0, 0, 0)" >Structure of Data Imposed by Databases</text><line x1="51" y1="133" x2="48" y2="137" /><line x1="51" y1="133" x2="50" y2="137" /><line x1="51" y1="133" x2="48" y2="141" /><text x="394" y="115" text-anchor="middle" font-family="Arial, sans-serif" font-size="11" fill="rgb(0, 0, 0)" >Functional SSK Bijection</text><line x1="452" y1="111" x2="454" y2="115" /><line x1="452" y1="111" x2="452" y2="115" /><line x1="452" y1="111" x2="455" y2="119" /><text x="408" y="137" text-anchor="middle" font-family="Arial, sans-serif" font-size="11" fill="rgb(0, 0, 0)" >SQL Compatibility</text><line x1="452" y1="133" x2="454" y2="137" /><line x1="452" y1="133" x2="452" y2="137" /><line x1="452" y1="133" x2="455" y2="141" /><text x="406" y="159" text-anchor="middle" font-family="Arial, sans-serif" font-size="11" fill="rgb(0, 0, 0)" >Proven Correctness</text><line x1="452" y1="155" x2="454" y2="159" /><line x1="452" y1="155" x2="452" y2="159" /><line x1="452" y1="155" x2="455" y2="163" /><text x="335" y="55" text-anchor="middle" font-family="Arial, sans-serif" font-size="11" fill="rgb(0, 0, 0)" >Original M:N OLTP Requirement</text><line x1="275" y1="50" x2="271" y2="48" /><line x1="275" y1="50" x2="271" y2="50" /><line x1="275" y1="50" x2="267" y2="48" /><text x="335" y="250" text-anchor="middle" font-family="Arial, sans-serif" font-size="11" fill="rgb(0, 0, 0)" >Prior Art in Mathematics, Scients and Technology</text><line x1="275" y1="245" x2="271" y2="243" /><line x1="275" y1="245" x2="271" y2="245" /><line x1="275" y1="245" x2="267" y2="243" /><text x="370" y="232" text-anchor="middle" font-family="Arial, sans-serif" font-size="11" fill="rgb(0, 0, 0)" >Modern Computing and Database Platform</text><line x1="310" y1="227" x2="306" y2="225" /><line x1="310" y1="227" x2="306" y2="227" /><line x1="310" y1="227" x2="302" y2="225" /></svg>
